<?xml version="1.0" encoding="UTF-8" standalone="no"?>
<!DOCTYPE svg PUBLIC "-//W3C//DTD SVG 1.1//EN"
 "http://www.w3.org/Graphics/SVG/1.1/DTD/svg11.dtd">
<!-- Generated by graphviz version 2.43.0 (0)
 -->
<!-- Title: G Pages: 1 -->
<svg width="9268pt" height="582pt"
 viewBox="0.00 0.00 9268.42 582.33" xmlns="http://www.w3.org/2000/svg" xmlns:xlink="http://www.w3.org/1999/xlink">
<g id="graph0" class="graph" transform="scale(1 1) rotate(0) translate(4 578.33)">
<title>G</title>
<polygon fill="white" stroke="transparent" points="-4,4 -4,-578.33 9264.42,-578.33 9264.42,4 -4,4"/>
<!-- n01 -->
<g id="node1" class="node">
<title>n01</title>
<polygon fill="#fdae61" stroke="black" points="2615.21,-574.33 1992.21,-574.33 1992.21,-538.33 2615.21,-538.33 2615.21,-574.33"/>
<text text-anchor="middle" x="2303.71" y="-550.13" font-family="Times,serif" font-size="24.00">https://umr1087.univ&#45;nantes.fr/rdf/groups/family1</text>
</g>
<!-- n61 -->
<g id="node7" class="node">
<title>n61</title>
<polygon fill="#d9ef8b" stroke="black" points="1765.71,-470.29 1185.71,-470.29 1185.71,-434.29 1765.71,-434.29 1765.71,-470.29"/>
<text text-anchor="middle" x="1475.71" y="-446.09" font-family="Times,serif" font-size="24.00">https://umr1087.univ&#45;nantes.fr/rdf/samples/S1</text>
</g>
<!-- n01&#45;&gt;n61 -->
<g id="edge41" class="edge">
<title>n01&#45;&gt;n61</title>
<path fill="none" stroke="black" d="M1991.79,-540.14C1826.19,-531.84 1654.74,-522.76 1645.71,-520.33 1621.14,-513.74 1618.12,-504.28 1594.71,-494.33 1577.23,-486.91 1557.9,-479.79 1540,-473.63"/>
<polygon fill="black" stroke="black" points="1540.81,-470.21 1530.22,-470.32 1538.56,-476.84 1540.81,-470.21"/>
<text text-anchor="middle" x="1723.21" y="-501.13" font-family="Times,serif" font-size="24.00">foaf:member</text>
</g>
<!-- n71 -->
<g id="node8" class="node">
<title>n71</title>
<polygon fill="#d9ef8b" stroke="black" points="2130.71,-360.21 1550.71,-360.21 1550.71,-324.21 2130.71,-324.21 2130.71,-360.21"/>
<text text-anchor="middle" x="1840.71" y="-336.01" font-family="Times,serif" font-size="24.00">https://umr1087.univ&#45;nantes.fr/rdf/samples/S3</text>
</g>
<!-- n01&#45;&gt;n71 -->
<g id="edge43" class="edge">
<title>n01&#45;&gt;n71</title>
<path fill="none" stroke="black" d="M2237.21,-538.2C2195.97,-525.48 2143.3,-505.29 2102.71,-476.33 2079.84,-460.02 2084.63,-444.48 2061.71,-428.25 2018.96,-397.99 1964.03,-376.78 1919.62,-363.12"/>
<polygon fill="black" stroke="black" points="1920.61,-359.76 1910.03,-360.23 1918.59,-366.46 1920.61,-359.76"/>
<text text-anchor="middle" x="2180.21" y="-446.09" font-family="Times,serif" font-size="24.00">foaf:member</text>
</g>
<!-- n181 -->
<g id="node19" class="node">
<title>n181</title>
<polygon fill="#d9ef8b" stroke="black" points="3835.71,-470.29 3255.71,-470.29 3255.71,-434.29 3835.71,-434.29 3835.71,-470.29"/>
<text text-anchor="middle" x="3545.71" y="-446.09" font-family="Times,serif" font-size="24.00">https://umr1087.univ&#45;nantes.fr/rdf/samples/S5</text>
</g>
<!-- n01&#45;&gt;n181 -->
<g id="edge44" class="edge">
<title>n01&#45;&gt;n181</title>
<path fill="none" stroke="black" d="M2615.46,-546.11C2742.78,-540.67 2874.39,-532.41 2935.71,-520.33 2970.32,-513.51 2976.17,-501.52 3010.71,-494.33 3012.68,-493.92 3168.67,-481.98 3311.69,-471.08"/>
<polygon fill="black" stroke="black" points="3312.26,-474.55 3321.97,-470.3 3311.73,-467.57 3312.26,-474.55"/>
<text text-anchor="middle" x="3088.21" y="-501.13" font-family="Times,serif" font-size="24.00">foaf:member</text>
</g>
<!-- n231 -->
<g id="node24" class="node">
<title>n231</title>
<polygon fill="#d9ef8b" stroke="black" points="2730.71,-360.21 2150.71,-360.21 2150.71,-324.21 2730.71,-324.21 2730.71,-360.21"/>
<text text-anchor="middle" x="2440.71" y="-336.01" font-family="Times,serif" font-size="24.00">https://umr1087.univ&#45;nantes.fr/rdf/samples/S2</text>
</g>
<!-- n01&#45;&gt;n231 -->
<g id="edge42" class="edge">
<title>n01&#45;&gt;n231</title>
<path fill="none" stroke="black" d="M2404.9,-538.3C2413.17,-533.61 2420.66,-527.72 2426.71,-520.33 2461.63,-477.69 2454.62,-408.27 2447.2,-370.24"/>
<polygon fill="black" stroke="black" points="2450.62,-369.46 2445.13,-360.39 2443.77,-370.9 2450.62,-369.46"/>
<text text-anchor="middle" x="2530.21" y="-446.09" font-family="Times,serif" font-size="24.00">foaf:member</text>
</g>
<!-- o16 -->
<g id="node43" class="node">
<title>o16</title>
<ellipse fill="lightgrey" stroke="black" cx="2335.71" cy="-452.29" rx="69.09" ry="24.08"/>
<text text-anchor="middle" x="2335.71" y="-446.09" font-family="Times,serif" font-size="24.00">Fam01</text>
</g>
<!-- n01&#45;&gt;o16 -->
<g id="edge40" class="edge">
<title>n01&#45;&gt;o16</title>
<path fill="none" stroke="black" d="M2301.21,-538.28C2300.04,-525.77 2299.81,-508.55 2304.71,-494.33 2305.91,-490.83 2307.54,-487.39 2309.42,-484.08"/>
<polygon fill="black" stroke="black" points="2312.37,-485.97 2314.88,-475.67 2306.5,-482.16 2312.37,-485.97"/>
<text text-anchor="middle" x="2365.71" y="-501.13" font-family="Times,serif" font-size="24.00">foaf:name</text>
</g>
<!-- n11 -->
<g id="node2" class="node">
<title>n11</title>
<polygon fill="#ffffbf" stroke="black" points="7349.71,-250.12 6659.71,-250.12 6659.71,-214.12 7349.71,-214.12 7349.71,-250.12"/>
<text text-anchor="middle" x="7004.71" y="-225.92" font-family="Times,serif" font-size="24.00">https://umr1087.univ&#45;nantes.fr/rdf/references/rotavirus</text>
</g>
<!-- n151 -->
<g id="node16" class="node">
<title>n151</title>
<polygon fill="#f46d43" stroke="black" points="7347.21,-140.04 7214.21,-140.04 7214.21,-104.04 7347.21,-104.04 7347.21,-140.04"/>
<text text-anchor="middle" x="7280.71" y="-115.84" font-family="Times,serif" font-size="24.00">Rotavirus</text>
</g>
<!-- n11&#45;&gt;n151 -->
<g id="edge4" class="edge">
<title>n11&#45;&gt;n151</title>
<path fill="none" stroke="black" d="M7073.08,-214.09C7096.72,-207.48 7123.17,-199.29 7146.71,-190.08 7179.65,-177.21 7215.4,-159.1 7241.68,-144.94"/>
<polygon fill="black" stroke="black" points="7243.45,-147.97 7250.56,-140.12 7240.11,-141.82 7243.45,-147.97"/>
<text text-anchor="middle" x="7248.71" y="-170.88" font-family="Times,serif" font-size="24.00">u:taxon</text>
</g>
<!-- o1 -->
<g id="node28" class="node">
<title>o1</title>
<ellipse fill="lightgrey" stroke="black" cx="6735.71" cy="-122.04" rx="89.19" ry="24.08"/>
<text text-anchor="middle" x="6735.71" y="-115.84" font-family="Times,serif" font-size="24.00">rotavirus</text>
</g>
<!-- n11&#45;&gt;o1 -->
<g id="edge2" class="edge">
<title>n11&#45;&gt;o1</title>
<path fill="none" stroke="black" d="M6933.37,-214.05C6909.87,-207.57 6883.84,-199.45 6860.71,-190.08 6832.68,-178.73 6802.77,-162.84 6779.25,-149.38"/>
<polygon fill="black" stroke="black" points="6780.97,-146.33 6770.56,-144.35 6777.46,-152.39 6780.97,-146.33"/>
<text text-anchor="middle" x="6933.21" y="-170.88" font-family="Times,serif" font-size="24.00">u:genomeId</text>
</g>
<!-- o2 -->
<g id="node29" class="node">
<title>o2</title>
<ellipse fill="lightgrey" stroke="black" cx="7019.71" cy="-122.04" rx="176.55" ry="24.08"/>
<text text-anchor="middle" x="7019.71" y="-115.84" font-family="Times,serif" font-size="24.00">data/rotavirus_rf.fa</text>
</g>
<!-- n11&#45;&gt;o2 -->
<g id="edge3" class="edge">
<title>n11&#45;&gt;o2</title>
<path fill="none" stroke="black" d="M7007.12,-213.76C7009.26,-198.35 7012.44,-175.42 7015.07,-156.46"/>
<polygon fill="black" stroke="black" points="7018.56,-156.8 7016.46,-146.41 7011.62,-155.84 7018.56,-156.8"/>
<text text-anchor="middle" x="7078.21" y="-170.88" font-family="Times,serif" font-size="24.00">u:filename</text>
</g>
<!-- n21 -->
<g id="node3" class="node">
<title>n21</title>
<polygon fill="#ffffbf" stroke="black" points="5501.71,-470.29 4835.71,-470.29 4835.71,-434.29 5501.71,-434.29 5501.71,-470.29"/>
<text text-anchor="middle" x="5168.71" y="-446.09" font-family="Times,serif" font-size="24.00">https://umr1087.univ&#45;nantes.fr/rdf/references/grch37</text>
</g>
<!-- n111 -->
<g id="node12" class="node">
<title>n111</title>
<polygon fill="#f46d43" stroke="black" points="6783.21,-360.21 6592.21,-360.21 6592.21,-324.21 6783.21,-324.21 6783.21,-360.21"/>
<text text-anchor="middle" x="6687.71" y="-336.01" font-family="Times,serif" font-size="24.00">Homo Sapiens</text>
</g>
<!-- n21&#45;&gt;n111 -->
<g id="edge27" class="edge">
<title>n21&#45;&gt;n111</title>
<path fill="none" stroke="black" d="M5407.72,-434.28C5743.36,-410.4 6340.31,-367.93 6581.87,-350.74"/>
<polygon fill="black" stroke="black" points="6582.33,-354.21 6592.06,-350.01 6581.84,-347.23 6582.33,-354.21"/>
<text text-anchor="middle" x="6154.71" y="-391.05" font-family="Times,serif" font-size="24.00">u:taxon</text>
</g>
<!-- o10 -->
<g id="node37" class="node">
<title>o10</title>
<ellipse fill="lightgrey" stroke="black" cx="5289.71" cy="-342.21" rx="72.25" ry="24.08"/>
<text text-anchor="middle" x="5289.71" y="-336.01" font-family="Times,serif" font-size="24.00">grch37</text>
</g>
<!-- n21&#45;&gt;o10 -->
<g id="edge25" class="edge">
<title>n21&#45;&gt;o10</title>
<path fill="none" stroke="black" d="M5221.47,-434.2C5234.46,-428.16 5247.53,-420.29 5257.71,-410.25 5267.34,-400.74 5274.45,-387.76 5279.49,-375.76"/>
<polygon fill="black" stroke="black" points="5282.76,-377.01 5283.1,-366.42 5276.23,-374.49 5282.76,-377.01"/>
<text text-anchor="middle" x="5347.21" y="-391.05" font-family="Times,serif" font-size="24.00">u:genomeId</text>
</g>
<!-- o11 -->
<g id="node38" class="node">
<title>o11</title>
<ellipse fill="lightgrey" stroke="black" cx="5053.71" cy="-342.21" rx="145.83" ry="24.08"/>
<text text-anchor="middle" x="5053.71" y="-336.01" font-family="Times,serif" font-size="24.00">data/hg19.fasta</text>
</g>
<!-- n21&#45;&gt;o11 -->
<g id="edge26" class="edge">
<title>n21&#45;&gt;o11</title>
<path fill="none" stroke="black" d="M5150.49,-434.17C5133.11,-417.84 5106.58,-392.9 5085.68,-373.26"/>
<polygon fill="black" stroke="black" points="5087.95,-370.59 5078.27,-366.29 5083.16,-375.69 5087.95,-370.59"/>
<text text-anchor="middle" x="5189.21" y="-391.05" font-family="Times,serif" font-size="24.00">u:filename</text>
</g>
<!-- n31 -->
<g id="node4" class="node">
<title>n31</title>
<polygon fill="#d73027" stroke="black" points="7998.71,-360.21 7412.71,-360.21 7412.71,-324.21 7998.71,-324.21 7998.71,-360.21"/>
<text text-anchor="middle" x="7705.71" y="-336.01" font-family="Times,serif" font-size="24.00">file:///home/lindenb/src/hts&#45;rdf/data/S4.RF.bam</text>
</g>
<!-- n31&#45;&gt;n11 -->
<g id="edge21" class="edge">
<title>n31&#45;&gt;n11</title>
<path fill="none" stroke="black" d="M7595.41,-324.2C7467.55,-304.49 7257.52,-272.1 7125.4,-251.73"/>
<polygon fill="black" stroke="black" points="7125.65,-248.23 7115.23,-250.17 7124.58,-255.15 7125.65,-248.23"/>
<text text-anchor="middle" x="7508.71" y="-280.97" font-family="Times,serif" font-size="24.00">u:reference</text>
</g>
<!-- n251 -->
<g id="node26" class="node">
<title>n251</title>
<polygon fill="#d9ef8b" stroke="black" points="8707.71,-250.12 8127.71,-250.12 8127.71,-214.12 8707.71,-214.12 8707.71,-250.12"/>
<text text-anchor="middle" x="8417.71" y="-225.92" font-family="Times,serif" font-size="24.00">https://umr1087.univ&#45;nantes.fr/rdf/samples/S4</text>
</g>
<!-- n31&#45;&gt;n251 -->
<g id="edge20" class="edge">
<title>n31&#45;&gt;n251</title>
<path fill="none" stroke="black" d="M7817.74,-324.2C7947.74,-304.47 8161.36,-272.04 8295.53,-251.67"/>
<polygon fill="black" stroke="black" points="8296.09,-255.13 8305.45,-250.17 8295.04,-248.21 8296.09,-255.13"/>
<text text-anchor="middle" x="8200.71" y="-280.97" font-family="Times,serif" font-size="24.00">u:sample</text>
</g>
<!-- o8 -->
<g id="node35" class="node">
<title>o8</title>
<ellipse fill="lightgrey" stroke="black" cx="7738.71" cy="-232.12" rx="370.55" ry="24.08"/>
<text text-anchor="middle" x="7738.71" y="-225.92" font-family="Times,serif" font-size="24.00">/home/lindenb/src/hts&#45;rdf/data/S4.RF.bam</text>
</g>
<!-- n31&#45;&gt;o8 -->
<g id="edge19" class="edge">
<title>n31&#45;&gt;o8</title>
<path fill="none" stroke="black" d="M7711.01,-323.84C7715.74,-308.36 7722.78,-285.29 7728.58,-266.28"/>
<polygon fill="black" stroke="black" points="7732,-267.08 7731.57,-256.5 7725.3,-265.04 7732,-267.08"/>
<text text-anchor="middle" x="7790.21" y="-280.97" font-family="Times,serif" font-size="24.00">u:filename</text>
</g>
<!-- n41 -->
<g id="node5" class="node">
<title>n41</title>
<polygon fill="#fee08b" stroke="black" points="1107.21,-360.21 876.21,-360.21 876.21,-324.21 1107.21,-324.21 1107.21,-360.21"/>
<text text-anchor="middle" x="991.71" y="-336.01" font-family="Times,serif" font-size="24.00">Turner Syndrome</text>
</g>
<!-- n51 -->
<g id="node6" class="node">
<title>n51</title>
<polygon fill="#d73027" stroke="black" points="5556.21,-574.33 4915.21,-574.33 4915.21,-538.33 5556.21,-538.33 5556.21,-574.33"/>
<text text-anchor="middle" x="5235.71" y="-550.13" font-family="Times,serif" font-size="24.00">file:///home/lindenb/src/hts&#45;rdf/data/S2.grch37.bam</text>
</g>
<!-- n51&#45;&gt;n21 -->
<g id="edge24" class="edge">
<title>n51&#45;&gt;n21</title>
<path fill="none" stroke="black" d="M5231.93,-538.26C5228.55,-525.43 5222.71,-507.82 5213.71,-494.33 5209.76,-488.42 5204.79,-482.79 5199.6,-477.69"/>
<polygon fill="black" stroke="black" points="5201.66,-474.84 5191.93,-470.64 5196.92,-479.99 5201.66,-474.84"/>
<text text-anchor="middle" x="5296.71" y="-501.13" font-family="Times,serif" font-size="24.00">u:reference</text>
</g>
<!-- n51&#45;&gt;n231 -->
<g id="edge23" class="edge">
<title>n51&#45;&gt;n231</title>
<path fill="none" stroke="black" d="M4915.09,-546.39C4821.86,-541.22 4739.97,-533.09 4721.71,-520.33 4684.99,-494.67 4717.81,-453.36 4680.71,-428.25 4601.83,-374.87 3333.45,-353.4 2741.12,-346.25"/>
<polygon fill="black" stroke="black" points="2740.76,-342.75 2730.72,-346.13 2740.67,-349.75 2740.76,-342.75"/>
<text text-anchor="middle" x="4755.71" y="-446.09" font-family="Times,serif" font-size="24.00">u:sample</text>
</g>
<!-- o9 -->
<g id="node36" class="node">
<title>o9</title>
<ellipse fill="lightgrey" stroke="black" cx="5928.71" cy="-452.29" rx="408.92" ry="24.08"/>
<text text-anchor="middle" x="5928.71" y="-446.09" font-family="Times,serif" font-size="24.00">/home/lindenb/src/hts&#45;rdf/data/S2.grch37.bam</text>
</g>
<!-- n51&#45;&gt;o9 -->
<g id="edge22" class="edge">
<title>n51&#45;&gt;o9</title>
<path fill="none" stroke="black" d="M5556.41,-541.73C5608.58,-536.66 5661.84,-529.74 5711.71,-520.33 5761.67,-510.9 5816.36,-493.96 5858.34,-479.47"/>
<polygon fill="black" stroke="black" points="5859.62,-482.73 5867.91,-476.13 5857.31,-476.12 5859.62,-482.73"/>
<text text-anchor="middle" x="5872.21" y="-501.13" font-family="Times,serif" font-size="24.00">u:filename</text>
</g>
<!-- n61&#45;&gt;n41 -->
<g id="edge14" class="edge">
<title>n61&#45;&gt;n41</title>
<path fill="none" stroke="black" d="M1252.01,-434.28C1135.38,-424.95 1015.78,-414.44 1010.71,-410.25 999.12,-400.66 994.31,-384.58 992.42,-370.57"/>
<polygon fill="black" stroke="black" points="995.89,-370.03 991.48,-360.4 988.92,-370.68 995.89,-370.03"/>
<text text-anchor="middle" x="1092.71" y="-391.05" font-family="Times,serif" font-size="24.00">u:has&#45;disease</text>
</g>
<!-- n61&#45;&gt;n71 -->
<g id="edge12" class="edge">
<title>n61&#45;&gt;n71</title>
<path fill="none" stroke="black" d="M1480.53,-434.21C1485.92,-418.5 1496.25,-395.94 1513.71,-384.25 1527.76,-374.84 1552.75,-367.59 1582.88,-362"/>
<polygon fill="black" stroke="black" points="1583.6,-365.43 1592.84,-360.25 1582.38,-358.54 1583.6,-365.43"/>
<text text-anchor="middle" x="1578.71" y="-391.05" font-family="Times,serif" font-size="24.00">rel:childOf</text>
</g>
<!-- n161 -->
<g id="node17" class="node">
<title>n161</title>
<polygon fill="#fee08b" stroke="black" points="1682.21,-140.04 1543.21,-140.04 1543.21,-104.04 1682.21,-104.04 1682.21,-140.04"/>
<text text-anchor="middle" x="1612.71" y="-115.84" font-family="Times,serif" font-size="24.00">COVID&#45;19</text>
</g>
<!-- n61&#45;&gt;n161 -->
<g id="edge13" class="edge">
<title>n61&#45;&gt;n161</title>
<path fill="none" stroke="black" d="M1476.84,-434.03C1479.46,-401.58 1487.58,-329.73 1510.71,-274.17 1530.86,-225.76 1567.64,-176.72 1591.09,-148.14"/>
<polygon fill="black" stroke="black" points="1593.91,-150.22 1597.62,-140.29 1588.53,-145.74 1593.91,-150.22"/>
<text text-anchor="middle" x="1592.71" y="-280.97" font-family="Times,serif" font-size="24.00">u:has&#45;disease</text>
</g>
<!-- n61&#45;&gt;n231 -->
<g id="edge11" class="edge">
<title>n61&#45;&gt;n231</title>
<path fill="none" stroke="black" d="M1627.55,-434.28C1804.8,-414.43 2096.75,-381.73 2278.38,-361.39"/>
<polygon fill="black" stroke="black" points="2279.01,-364.84 2288.56,-360.25 2278.23,-357.88 2279.01,-364.84"/>
<text text-anchor="middle" x="2137.71" y="-391.05" font-family="Times,serif" font-size="24.00">rel:childOf</text>
</g>
<!-- o4 -->
<g id="node31" class="node">
<title>o4</title>
<ellipse fill="lightgrey" stroke="black" cx="1178.71" cy="-342.21" rx="33.88" ry="24.08"/>
<text text-anchor="middle" x="1178.71" y="-336.01" font-family="Times,serif" font-size="24.00">S1</text>
</g>
<!-- n61&#45;&gt;o4 -->
<g id="edge9" class="edge">
<title>n61&#45;&gt;o4</title>
<path fill="none" stroke="black" d="M1249.3,-434.28C1222.88,-428.46 1201.49,-420.67 1190.71,-410.25 1181.67,-401.52 1178.07,-388.49 1176.95,-376.23"/>
<polygon fill="black" stroke="black" points="1180.45,-376.07 1176.52,-366.22 1173.45,-376.36 1180.45,-376.07"/>
<text text-anchor="middle" x="1251.71" y="-391.05" font-family="Times,serif" font-size="24.00">foaf:name</text>
</g>
<!-- o5 -->
<g id="node32" class="node">
<title>o5</title>
<ellipse fill="lightgrey" stroke="black" cx="1323.71" cy="-342.21" rx="69.09" ry="24.08"/>
<text text-anchor="middle" x="1323.71" y="-336.01" font-family="Times,serif" font-size="24.00">female</text>
</g>
<!-- n61&#45;&gt;o5 -->
<g id="edge10" class="edge">
<title>n61&#45;&gt;o5</title>
<path fill="none" stroke="black" d="M1377.83,-434.29C1353.56,-428.02 1332.29,-420.01 1324.71,-410.25 1317.36,-400.79 1315.76,-388.11 1316.47,-376.32"/>
<polygon fill="black" stroke="black" points="1319.96,-376.63 1317.6,-366.3 1313,-375.84 1319.96,-376.63"/>
<text text-anchor="middle" x="1395.21" y="-391.05" font-family="Times,serif" font-size="24.00">foaf:gender</text>
</g>
<!-- n101 -->
<g id="node11" class="node">
<title>n101</title>
<polygon fill="#fee08b" stroke="black" points="2115.71,-250.12 1885.71,-250.12 1885.71,-214.12 2115.71,-214.12 2115.71,-250.12"/>
<text text-anchor="middle" x="2000.71" y="-225.92" font-family="Times,serif" font-size="24.00">Severe COVID&#45;19</text>
</g>
<!-- n71&#45;&gt;n101 -->
<g id="edge47" class="edge">
<title>n71&#45;&gt;n101</title>
<path fill="none" stroke="black" d="M1922.07,-324.11C1937.35,-318.29 1952.38,-310.52 1964.71,-300.17 1977.24,-289.63 1986.08,-273.59 1991.86,-259.84"/>
<polygon fill="black" stroke="black" points="1995.19,-260.93 1995.53,-250.34 1988.66,-258.4 1995.19,-260.93"/>
<text text-anchor="middle" x="2067.71" y="-280.97" font-family="Times,serif" font-size="24.00">u:has&#45;disease</text>
</g>
<!-- o17 -->
<g id="node44" class="node">
<title>o17</title>
<ellipse fill="lightgrey" stroke="black" cx="1833.71" cy="-232.12" rx="33.88" ry="24.08"/>
<text text-anchor="middle" x="1833.71" y="-225.92" font-family="Times,serif" font-size="24.00">S3</text>
</g>
<!-- n71&#45;&gt;o17 -->
<g id="edge45" class="edge">
<title>n71&#45;&gt;o17</title>
<path fill="none" stroke="black" d="M1839.58,-323.84C1838.59,-308.44 1837.1,-285.5 1835.87,-266.54"/>
<polygon fill="black" stroke="black" points="1839.36,-266.25 1835.22,-256.5 1832.38,-266.7 1839.36,-266.25"/>
<text text-anchor="middle" x="1899.71" y="-280.97" font-family="Times,serif" font-size="24.00">foaf:name</text>
</g>
<!-- o18 -->
<g id="node45" class="node">
<title>o18</title>
<ellipse fill="lightgrey" stroke="black" cx="1674.71" cy="-232.12" rx="53.07" ry="24.08"/>
<text text-anchor="middle" x="1674.71" y="-225.92" font-family="Times,serif" font-size="24.00">male</text>
</g>
<!-- n71&#45;&gt;o18 -->
<g id="edge46" class="edge">
<title>n71&#45;&gt;o18</title>
<path fill="none" stroke="black" d="M1727.74,-324.21C1714.34,-318.33 1701.85,-310.52 1691.71,-300.17 1683,-291.28 1678.55,-278.6 1676.35,-266.65"/>
<polygon fill="black" stroke="black" points="1679.78,-265.89 1674.94,-256.46 1672.84,-266.85 1679.78,-265.89"/>
<text text-anchor="middle" x="1762.21" y="-280.97" font-family="Times,serif" font-size="24.00">foaf:gender</text>
</g>
<!-- n81 -->
<g id="node9" class="node">
<title>n81</title>
<polygon fill="#d73027" stroke="black" points="7248.21,-574.33 6607.21,-574.33 6607.21,-538.33 7248.21,-538.33 7248.21,-574.33"/>
<text text-anchor="middle" x="6927.71" y="-550.13" font-family="Times,serif" font-size="24.00">file:///home/lindenb/src/hts&#45;rdf/data/S3.grch38.bam</text>
</g>
<!-- n81&#45;&gt;n71 -->
<g id="edge6" class="edge">
<title>n81&#45;&gt;n71</title>
<path fill="none" stroke="black" d="M6684.9,-538.31C6564.44,-526.28 6433.93,-506.76 6382.71,-476.33 6359.76,-462.7 6370.53,-440.29 6346.71,-428.25 6317.58,-413.53 4029.34,-410.76 3996.71,-410.25 3172.13,-397.31 2965.35,-407.51 2141.71,-366.25 2113.26,-364.82 2083.32,-362.97 2053.8,-360.92"/>
<polygon fill="black" stroke="black" points="2054.03,-357.43 2043.81,-360.22 2053.54,-364.41 2054.03,-357.43"/>
<text text-anchor="middle" x="6437.71" y="-446.09" font-family="Times,serif" font-size="24.00">u:sample</text>
</g>
<!-- n171 -->
<g id="node18" class="node">
<title>n171</title>
<polygon fill="#ffffbf" stroke="black" points="7589.71,-470.29 6923.71,-470.29 6923.71,-434.29 7589.71,-434.29 7589.71,-470.29"/>
<text text-anchor="middle" x="7256.71" y="-446.09" font-family="Times,serif" font-size="24.00">https://umr1087.univ&#45;nantes.fr/rdf/references/grch38</text>
</g>
<!-- n81&#45;&gt;n171 -->
<g id="edge7" class="edge">
<title>n81&#45;&gt;n171</title>
<path fill="none" stroke="black" d="M6982.77,-538.25C7040.39,-520.38 7130.78,-492.35 7191.82,-473.42"/>
<polygon fill="black" stroke="black" points="7193.22,-476.65 7201.74,-470.34 7191.15,-469.96 7193.22,-476.65"/>
<text text-anchor="middle" x="7191.71" y="-501.13" font-family="Times,serif" font-size="24.00">u:reference</text>
</g>
<!-- o3 -->
<g id="node30" class="node">
<title>o3</title>
<ellipse fill="lightgrey" stroke="black" cx="8016.71" cy="-452.29" rx="408.92" ry="24.08"/>
<text text-anchor="middle" x="8016.71" y="-446.09" font-family="Times,serif" font-size="24.00">/home/lindenb/src/hts&#45;rdf/data/S3.grch38.bam</text>
</g>
<!-- n81&#45;&gt;o3 -->
<g id="edge5" class="edge">
<title>n81&#45;&gt;o3</title>
<path fill="none" stroke="black" d="M7248.64,-538.79C7251.68,-538.64 7254.7,-538.49 7257.71,-538.33 7416.81,-530.23 7457.32,-537.5 7615.71,-520.33 7710.09,-510.11 7815.98,-492.12 7895.24,-477.35"/>
<polygon fill="black" stroke="black" points="7896.08,-480.75 7905.26,-475.47 7894.79,-473.87 7896.08,-480.75"/>
<text text-anchor="middle" x="7856.21" y="-501.13" font-family="Times,serif" font-size="24.00">u:filename</text>
</g>
<!-- n91 -->
<g id="node10" class="node">
<title>n91</title>
<polygon fill="#d73027" stroke="black" points="1348.21,-574.33 707.21,-574.33 707.21,-538.33 1348.21,-538.33 1348.21,-574.33"/>
<text text-anchor="middle" x="1027.71" y="-550.13" font-family="Times,serif" font-size="24.00">file:///home/lindenb/src/hts&#45;rdf/data/S1.grch38.bam</text>
</g>
<!-- n91&#45;&gt;n61 -->
<g id="edge54" class="edge">
<title>n91&#45;&gt;n61</title>
<path fill="none" stroke="black" d="M1022.4,-538.06C1019.38,-524.42 1018.05,-505.83 1028.71,-494.33 1032.83,-489.89 1138.65,-480.06 1246.28,-471.14"/>
<polygon fill="black" stroke="black" points="1246.68,-474.62 1256.36,-470.3 1246.11,-467.64 1246.68,-474.62"/>
<text text-anchor="middle" x="1083.71" y="-501.13" font-family="Times,serif" font-size="24.00">u:sample</text>
</g>
<!-- n91&#45;&gt;n171 -->
<g id="edge55" class="edge">
<title>n91&#45;&gt;n171</title>
<path fill="none" stroke="black" d="M1348.58,-544.95C1440.05,-542.36 1539.8,-539.88 1631.71,-538.33 1676.87,-537.57 4843.49,-540.89 4883.71,-520.33 4896.45,-513.82 4889.98,-500.87 4902.71,-494.33 4927.57,-481.57 6886.78,-477.4 6914.71,-476.33 6949.36,-475.01 6985.96,-473.1 7021.82,-470.93"/>
<polygon fill="black" stroke="black" points="7022.14,-474.42 7031.91,-470.31 7021.71,-467.43 7022.14,-474.42"/>
<text text-anchor="middle" x="4973.71" y="-501.13" font-family="Times,serif" font-size="24.00">u:reference</text>
</g>
<!-- o20 -->
<g id="node47" class="node">
<title>o20</title>
<ellipse fill="lightgrey" stroke="black" cx="408.71" cy="-452.29" rx="408.92" ry="24.08"/>
<text text-anchor="middle" x="408.71" y="-446.09" font-family="Times,serif" font-size="24.00">/home/lindenb/src/hts&#45;rdf/data/S1.grch38.bam</text>
</g>
<!-- n91&#45;&gt;o20 -->
<g id="edge53" class="edge">
<title>n91&#45;&gt;o20</title>
<path fill="none" stroke="black" d="M924.45,-538.31C822.28,-521.47 665.07,-495.55 551.08,-476.76"/>
<polygon fill="black" stroke="black" points="551.31,-473.25 540.87,-475.08 550.17,-480.16 551.31,-473.25"/>
<text text-anchor="middle" x="875.21" y="-501.13" font-family="Times,serif" font-size="24.00">u:filename</text>
</g>
<!-- n101&#45;&gt;n161 -->
<g id="edge63" class="edge">
<title>n101&#45;&gt;n161</title>
<path fill="none" stroke="black" d="M1939.66,-214.12C1870.36,-194.81 1757.45,-163.36 1684.12,-142.93"/>
<polygon fill="black" stroke="black" points="1684.62,-139.44 1674.04,-140.13 1682.74,-146.18 1684.62,-139.44"/>
<text text-anchor="middle" x="1949.21" y="-170.88" font-family="Times,serif" font-size="24.00">rdfs:subClassOf</text>
</g>
<!-- n261 -->
<g id="node27" class="node">
<title>n261</title>
<polygon fill="#f46d43" stroke="black" points="6613.21,-250.12 6524.21,-250.12 6524.21,-214.12 6613.21,-214.12 6613.21,-250.12"/>
<text text-anchor="middle" x="6568.71" y="-225.92" font-family="Times,serif" font-size="24.00">Homo</text>
</g>
<!-- n111&#45;&gt;n261 -->
<g id="edge48" class="edge">
<title>n111&#45;&gt;n261</title>
<path fill="none" stroke="black" d="M6668.85,-324.08C6648.92,-305.98 6617.33,-277.29 6594.97,-256.97"/>
<polygon fill="black" stroke="black" points="6597.23,-254.3 6587.48,-250.17 6592.52,-259.49 6597.23,-254.3"/>
<text text-anchor="middle" x="6737.21" y="-280.97" font-family="Times,serif" font-size="24.00">rdfs:subClassOf</text>
</g>
<!-- n121 -->
<g id="node13" class="node">
<title>n121</title>
<polygon fill="#f46d43" stroke="black" points="6628.21,-140.04 6479.21,-140.04 6479.21,-104.04 6628.21,-104.04 6628.21,-140.04"/>
<text text-anchor="middle" x="6553.71" y="-115.84" font-family="Times,serif" font-size="24.00">Hominidae</text>
</g>
<!-- n131 -->
<g id="node14" class="node">
<title>n131</title>
<polygon fill="#f46d43" stroke="black" points="6833.21,-36 6744.21,-36 6744.21,0 6833.21,0 6833.21,-36"/>
<text text-anchor="middle" x="6788.71" y="-11.8" font-family="Times,serif" font-size="24.00">ROOT</text>
</g>
<!-- n121&#45;&gt;n131 -->
<g id="edge18" class="edge">
<title>n121&#45;&gt;n131</title>
<path fill="none" stroke="black" d="M6593.04,-103.96C6633.46,-86.41 6696.45,-59.06 6739.99,-40.15"/>
<polygon fill="black" stroke="black" points="6741.47,-43.33 6749.25,-36.14 6738.68,-36.91 6741.47,-43.33"/>
<text text-anchor="middle" x="6801.21" y="-60.8" font-family="Times,serif" font-size="24.00">rdfs:subClassOf</text>
</g>
<!-- n141 -->
<g id="node15" class="node">
<title>n141</title>
<polygon fill="#a50026" stroke="black" points="1938.21,-574.33 1641.21,-574.33 1641.21,-538.33 1938.21,-538.33 1938.21,-574.33"/>
<text text-anchor="middle" x="1789.71" y="-550.13" font-family="Times,serif" font-size="24.00">file://data/variants2.vcf</text>
</g>
<!-- n141&#45;&gt;n21 -->
<g id="edge59" class="edge">
<title>n141&#45;&gt;n21</title>
<path fill="none" stroke="black" d="M1938.44,-541.11C1953.72,-540 1969.02,-539.04 1983.71,-538.33 2411.67,-517.62 3484.23,-549.34 3911.71,-520.33 4003.34,-514.12 4025.13,-501.29 4116.71,-494.33 4429.24,-470.58 4508.6,-490.72 4821.71,-476.33 4854.09,-474.85 4888.16,-472.97 4921.77,-470.93"/>
<polygon fill="black" stroke="black" points="4922.42,-474.4 4932.19,-470.29 4921.99,-467.41 4922.42,-474.4"/>
<text text-anchor="middle" x="4187.71" y="-501.13" font-family="Times,serif" font-size="24.00">u:reference</text>
</g>
<!-- n141&#45;&gt;n61 -->
<g id="edge60" class="edge">
<title>n141&#45;&gt;n61</title>
<path fill="none" stroke="black" d="M1641.19,-546.38C1569.59,-540.62 1496.6,-532 1484.71,-520.33 1474.35,-510.18 1471.9,-494.21 1472.12,-480.41"/>
<polygon fill="black" stroke="black" points="1475.62,-480.61 1472.74,-470.41 1468.63,-480.18 1475.62,-480.61"/>
<text text-anchor="middle" x="1539.71" y="-501.13" font-family="Times,serif" font-size="24.00">u:sample</text>
</g>
<!-- n141&#45;&gt;n71 -->
<g id="edge62" class="edge">
<title>n141&#45;&gt;n71</title>
<path fill="none" stroke="black" d="M1792.78,-537.96C1797.24,-513.39 1806.03,-467.15 1815.71,-428.25 1820.6,-408.59 1827.07,-386.65 1832.21,-369.99"/>
<polygon fill="black" stroke="black" points="1835.57,-370.95 1835.2,-360.36 1828.89,-368.86 1835.57,-370.95"/>
<text text-anchor="middle" x="1870.71" y="-446.09" font-family="Times,serif" font-size="24.00">u:sample</text>
</g>
<!-- n141&#45;&gt;n231 -->
<g id="edge61" class="edge">
<title>n141&#45;&gt;n231</title>
<path fill="none" stroke="black" d="M1894.1,-538.25C1912.13,-533.4 1927.19,-527.45 1933.71,-520.33 1961.67,-489.81 1918.73,-457.81 1947.71,-428.25 1971.16,-404.33 2145.36,-378.36 2280.12,-361.49"/>
<polygon fill="black" stroke="black" points="2280.67,-364.95 2290.16,-360.24 2279.81,-358 2280.67,-364.95"/>
<text text-anchor="middle" x="2002.71" y="-446.09" font-family="Times,serif" font-size="24.00">u:sample</text>
</g>
<!-- o23 -->
<g id="node50" class="node">
<title>o23</title>
<ellipse fill="lightgrey" stroke="black" cx="1001.71" cy="-452.29" rx="166.34" ry="24.08"/>
<text text-anchor="middle" x="1001.71" y="-446.09" font-family="Times,serif" font-size="24.00">data/variants2.vcf</text>
</g>
<!-- n141&#45;&gt;o23 -->
<g id="edge58" class="edge">
<title>n141&#45;&gt;o23</title>
<path fill="none" stroke="black" d="M1641.1,-548.14C1553.42,-542.81 1440.44,-534.03 1340.71,-520.33 1257.72,-508.93 1164.4,-490.02 1096.72,-475.19"/>
<polygon fill="black" stroke="black" points="1097.44,-471.76 1086.92,-473.03 1095.94,-478.6 1097.44,-471.76"/>
<text text-anchor="middle" x="1405.21" y="-501.13" font-family="Times,serif" font-size="24.00">u:filename</text>
</g>
<!-- n151&#45;&gt;n131 -->
<g id="edge28" class="edge">
<title>n151&#45;&gt;n131</title>
<path fill="none" stroke="black" d="M7227.65,-103.94C7220.31,-101.81 7212.85,-99.77 7205.71,-98 7077.36,-66.23 6924.06,-40.18 6843.85,-27.45"/>
<polygon fill="black" stroke="black" points="6843.92,-23.91 6833.49,-25.81 6842.82,-30.83 6843.92,-23.91"/>
<text text-anchor="middle" x="7221.21" y="-60.8" font-family="Times,serif" font-size="24.00">rdfs:subClassOf</text>
</g>
<!-- n191 -->
<g id="node20" class="node">
<title>n191</title>
<polygon fill="#fee08b" stroke="black" points="1806.71,-36 1418.71,-36 1418.71,0 1806.71,0 1806.71,-36"/>
<text text-anchor="middle" x="1612.71" y="-11.8" font-family="Times,serif" font-size="24.00">Coronavirus infectious disease</text>
</g>
<!-- n161&#45;&gt;n191 -->
<g id="edge8" class="edge">
<title>n161&#45;&gt;n191</title>
<path fill="none" stroke="black" d="M1612.71,-103.73C1612.71,-87.95 1612.71,-64.38 1612.71,-46.11"/>
<polygon fill="black" stroke="black" points="1616.21,-46.05 1612.71,-36.05 1609.21,-46.05 1616.21,-46.05"/>
<text text-anchor="middle" x="1708.21" y="-60.8" font-family="Times,serif" font-size="24.00">rdfs:subClassOf</text>
</g>
<!-- n171&#45;&gt;n111 -->
<g id="edge17" class="edge">
<title>n171&#45;&gt;n111</title>
<path fill="none" stroke="black" d="M7167.18,-434.28C7063.99,-414.68 6894.87,-382.56 6787.53,-362.17"/>
<polygon fill="black" stroke="black" points="6788.13,-358.72 6777.66,-360.29 6786.83,-365.6 6788.13,-358.72"/>
<text text-anchor="middle" x="7085.71" y="-391.05" font-family="Times,serif" font-size="24.00">u:taxon</text>
</g>
<!-- o6 -->
<g id="node33" class="node">
<title>o6</title>
<ellipse fill="lightgrey" stroke="black" cx="7256.71" cy="-342.21" rx="72.25" ry="24.08"/>
<text text-anchor="middle" x="7256.71" y="-336.01" font-family="Times,serif" font-size="24.00">grch38</text>
</g>
<!-- n171&#45;&gt;o6 -->
<g id="edge15" class="edge">
<title>n171&#45;&gt;o6</title>
<path fill="none" stroke="black" d="M7256.71,-433.93C7256.71,-418.52 7256.71,-395.58 7256.71,-376.63"/>
<polygon fill="black" stroke="black" points="7260.21,-376.58 7256.71,-366.58 7253.21,-376.58 7260.21,-376.58"/>
<text text-anchor="middle" x="7329.21" y="-391.05" font-family="Times,serif" font-size="24.00">u:genomeId</text>
</g>
<!-- o7 -->
<g id="node34" class="node">
<title>o7</title>
<ellipse fill="lightgrey" stroke="black" cx="8162.71" cy="-342.21" rx="145.83" ry="24.08"/>
<text text-anchor="middle" x="8162.71" y="-336.01" font-family="Times,serif" font-size="24.00">data/hg38.fasta</text>
</g>
<!-- n171&#45;&gt;o7 -->
<g id="edge16" class="edge">
<title>n171&#45;&gt;o7</title>
<path fill="none" stroke="black" d="M7421.73,-434.27C7574.02,-418.17 7806.37,-392.61 8007.71,-366.25 8021.06,-364.5 8035.04,-362.57 8048.91,-360.59"/>
<polygon fill="black" stroke="black" points="8049.58,-364.03 8058.98,-359.14 8048.58,-357.1 8049.58,-364.03"/>
<text text-anchor="middle" x="7928.21" y="-391.05" font-family="Times,serif" font-size="24.00">u:filename</text>
</g>
<!-- o14 -->
<g id="node41" class="node">
<title>o14</title>
<ellipse fill="lightgrey" stroke="black" cx="4740.71" cy="-342.21" rx="33.88" ry="24.08"/>
<text text-anchor="middle" x="4740.71" y="-336.01" font-family="Times,serif" font-size="24.00">S5</text>
</g>
<!-- n181&#45;&gt;o14 -->
<g id="edge38" class="edge">
<title>n181&#45;&gt;o14</title>
<path fill="none" stroke="black" d="M3733.74,-434.28C4018.7,-408.51 4543.07,-361.08 4697.09,-347.15"/>
<polygon fill="black" stroke="black" points="4697.47,-350.63 4707.11,-346.25 4696.84,-343.66 4697.47,-350.63"/>
<text text-anchor="middle" x="4345.71" y="-391.05" font-family="Times,serif" font-size="24.00">foaf:name</text>
</g>
<!-- n201 -->
<g id="node21" class="node">
<title>n201</title>
<polygon fill="#a50026" stroke="black" points="3115.21,-574.33 2818.21,-574.33 2818.21,-538.33 3115.21,-538.33 3115.21,-574.33"/>
<text text-anchor="middle" x="2966.71" y="-550.13" font-family="Times,serif" font-size="24.00">file://data/variants1.vcf</text>
</g>
<!-- n201&#45;&gt;n61 -->
<g id="edge34" class="edge">
<title>n201&#45;&gt;n61</title>
<path fill="none" stroke="black" d="M2818.16,-547.67C2758.1,-544.64 2688.1,-541.21 2624.71,-538.33 2429.63,-529.49 2380.54,-533.52 2185.71,-520.33 1998.72,-507.68 1784.64,-486.55 1640.87,-471.39"/>
<polygon fill="black" stroke="black" points="1640.95,-467.88 1630.64,-470.31 1640.22,-474.84 1640.95,-467.88"/>
<text text-anchor="middle" x="2240.71" y="-501.13" font-family="Times,serif" font-size="24.00">u:sample</text>
</g>
<!-- n201&#45;&gt;n71 -->
<g id="edge36" class="edge">
<title>n201&#45;&gt;n71</title>
<path fill="none" stroke="black" d="M2818.17,-544.43C2758.43,-533.99 2691.75,-514.06 2640.71,-476.33 2620.26,-461.22 2631.49,-441.37 2609.71,-428.25 2569.97,-404.31 2447.86,-415 2401.71,-410.25 2259.04,-395.56 2096.34,-375.78 1983.03,-361.52"/>
<polygon fill="black" stroke="black" points="1983.27,-358.02 1972.91,-360.24 1982.39,-364.96 1983.27,-358.02"/>
<text text-anchor="middle" x="2695.71" y="-446.09" font-family="Times,serif" font-size="24.00">u:sample</text>
</g>
<!-- n201&#45;&gt;n171 -->
<g id="edge33" class="edge">
<title>n201&#45;&gt;n171</title>
<path fill="none" stroke="black" d="M3115.39,-552.65C3305.24,-549.25 3643.9,-543.22 3933.71,-538.33 3964.68,-537.81 5021.2,-534.58 5048.71,-520.33 5061.42,-513.75 5054.98,-500.88 5067.71,-494.33 5113.34,-470.88 6863.44,-478.31 6914.71,-476.33 6949.22,-475 6985.67,-473.09 7021.39,-470.93"/>
<polygon fill="black" stroke="black" points="7021.68,-474.42 7031.45,-470.32 7021.25,-467.43 7021.68,-474.42"/>
<text text-anchor="middle" x="5138.71" y="-501.13" font-family="Times,serif" font-size="24.00">u:reference</text>
</g>
<!-- n201&#45;&gt;n181 -->
<g id="edge37" class="edge">
<title>n201&#45;&gt;n181</title>
<path fill="none" stroke="black" d="M3063.29,-538.31C3167.04,-520.03 3331.43,-491.05 3438.95,-472.11"/>
<polygon fill="black" stroke="black" points="3439.61,-475.54 3448.85,-470.36 3438.39,-468.65 3439.61,-475.54"/>
<text text-anchor="middle" x="3362.71" y="-501.13" font-family="Times,serif" font-size="24.00">u:sample</text>
</g>
<!-- n201&#45;&gt;n231 -->
<g id="edge35" class="edge">
<title>n201&#45;&gt;n231</title>
<path fill="none" stroke="black" d="M3077.37,-538.27C3094.25,-533.5 3107.98,-527.59 3113.71,-520.33 3128.82,-501.2 3120.29,-446.58 3100.71,-428.25 3048.04,-378.95 2889.7,-357.52 2741.32,-348.49"/>
<polygon fill="black" stroke="black" points="2741.3,-344.98 2731.11,-347.88 2740.89,-351.97 2741.3,-344.98"/>
<text text-anchor="middle" x="3174.71" y="-446.09" font-family="Times,serif" font-size="24.00">u:sample</text>
</g>
<!-- o13 -->
<g id="node40" class="node">
<title>o13</title>
<ellipse fill="lightgrey" stroke="black" cx="2925.71" cy="-452.29" rx="166.34" ry="24.08"/>
<text text-anchor="middle" x="2925.71" y="-446.09" font-family="Times,serif" font-size="24.00">data/variants1.vcf</text>
</g>
<!-- n201&#45;&gt;o13 -->
<g id="edge32" class="edge">
<title>n201&#45;&gt;o13</title>
<path fill="none" stroke="black" d="M2843.23,-538.3C2826.28,-533.6 2812.64,-527.7 2806.71,-520.33 2791.74,-501.74 2806.94,-487.41 2830.89,-476.85"/>
<polygon fill="black" stroke="black" points="2832.49,-479.98 2840.45,-472.99 2829.87,-473.49 2832.49,-479.98"/>
<text text-anchor="middle" x="2871.21" y="-501.13" font-family="Times,serif" font-size="24.00">u:filename</text>
</g>
<!-- n211 -->
<g id="node22" class="node">
<title>n211</title>
<polygon fill="#f46d43" stroke="black" points="6905.71,-470.29 6501.71,-470.29 6501.71,-434.29 6905.71,-434.29 6905.71,-470.29"/>
<text text-anchor="middle" x="6703.71" y="-446.09" font-family="Times,serif" font-size="24.00">Homo sapiens neanderthalensis</text>
</g>
<!-- n211&#45;&gt;n111 -->
<g id="edge49" class="edge">
<title>n211&#45;&gt;n111</title>
<path fill="none" stroke="black" d="M6701.14,-433.93C6698.61,-416.83 6694.7,-390.46 6691.76,-370.55"/>
<polygon fill="black" stroke="black" points="6695.2,-369.91 6690.27,-360.53 6688.27,-370.94 6695.2,-369.91"/>
<text text-anchor="middle" x="6792.21" y="-391.05" font-family="Times,serif" font-size="24.00">rdfs:subClassOf</text>
</g>
<!-- n221 -->
<g id="node23" class="node">
<title>n221</title>
<polygon fill="#d73027" stroke="black" points="7907.21,-574.33 7266.21,-574.33 7266.21,-538.33 7907.21,-538.33 7907.21,-574.33"/>
<text text-anchor="middle" x="7586.71" y="-550.13" font-family="Times,serif" font-size="24.00">file:///home/lindenb/src/hts&#45;rdf/data/S5.grch38.bam</text>
</g>
<!-- n221&#45;&gt;n171 -->
<g id="edge52" class="edge">
<title>n221&#45;&gt;n171</title>
<path fill="none" stroke="black" d="M7531.47,-538.25C7473.56,-520.35 7382.64,-492.23 7321.41,-473.3"/>
<polygon fill="black" stroke="black" points="7322.43,-469.95 7311.85,-470.34 7320.37,-476.64 7322.43,-469.95"/>
<text text-anchor="middle" x="7540.71" y="-501.13" font-family="Times,serif" font-size="24.00">u:reference</text>
</g>
<!-- n221&#45;&gt;n181 -->
<g id="edge51" class="edge">
<title>n221&#45;&gt;n181</title>
<path fill="none" stroke="black" d="M7265.89,-538.6C7263.15,-538.51 7260.42,-538.42 7257.71,-538.33 6888.98,-526.81 5965.89,-543.45 5597.71,-520.33 5496.8,-514 5472.61,-500.72 5371.71,-494.33 4694.35,-451.49 4522.75,-506.42 3844.71,-476.33 3814.91,-475.01 3783.46,-473.13 3752.61,-471"/>
<polygon fill="black" stroke="black" points="3752.84,-467.5 3742.62,-470.3 3752.35,-474.49 3752.84,-467.5"/>
<text text-anchor="middle" x="5652.71" y="-501.13" font-family="Times,serif" font-size="24.00">u:sample</text>
</g>
<!-- o19 -->
<g id="node46" class="node">
<title>o19</title>
<ellipse fill="lightgrey" stroke="black" cx="8851.71" cy="-452.29" rx="408.92" ry="24.08"/>
<text text-anchor="middle" x="8851.71" y="-446.09" font-family="Times,serif" font-size="24.00">/home/lindenb/src/hts&#45;rdf/data/S5.grch38.bam</text>
</g>
<!-- n221&#45;&gt;o19 -->
<g id="edge50" class="edge">
<title>n221&#45;&gt;o19</title>
<path fill="none" stroke="black" d="M7797.73,-538.31C8021.31,-520.28 8373.83,-491.84 8608.83,-472.88"/>
<polygon fill="black" stroke="black" points="8609.19,-476.37 8618.88,-472.07 8608.63,-469.39 8609.19,-476.37"/>
<text text-anchor="middle" x="8396.21" y="-501.13" font-family="Times,serif" font-size="24.00">u:filename</text>
</g>
<!-- o21 -->
<g id="node48" class="node">
<title>o21</title>
<ellipse fill="lightgrey" stroke="black" cx="2522.71" cy="-232.12" rx="33.88" ry="24.08"/>
<text text-anchor="middle" x="2522.71" y="-225.92" font-family="Times,serif" font-size="24.00">S2</text>
</g>
<!-- n231&#45;&gt;o21 -->
<g id="edge56" class="edge">
<title>n231&#45;&gt;o21</title>
<path fill="none" stroke="black" d="M2473.82,-324.1C2483.6,-317.71 2493.59,-309.65 2500.71,-300.17 2508.16,-290.24 2513.16,-277.67 2516.48,-266.1"/>
<polygon fill="black" stroke="black" points="2519.9,-266.84 2518.99,-256.29 2513.12,-265.11 2519.9,-266.84"/>
<text text-anchor="middle" x="2574.71" y="-280.97" font-family="Times,serif" font-size="24.00">foaf:name</text>
</g>
<!-- o22 -->
<g id="node49" class="node">
<title>o22</title>
<ellipse fill="lightgrey" stroke="black" cx="2358.71" cy="-232.12" rx="69.09" ry="24.08"/>
<text text-anchor="middle" x="2358.71" y="-225.92" font-family="Times,serif" font-size="24.00">female</text>
</g>
<!-- n231&#45;&gt;o22 -->
<g id="edge57" class="edge">
<title>n231&#45;&gt;o22</title>
<path fill="none" stroke="black" d="M2382.68,-324.05C2371.98,-318.2 2362.15,-310.44 2355.71,-300.17 2349.5,-290.27 2348.61,-277.84 2349.83,-266.37"/>
<polygon fill="black" stroke="black" points="2353.34,-266.65 2351.46,-256.22 2346.42,-265.54 2353.34,-266.65"/>
<text text-anchor="middle" x="2426.21" y="-280.97" font-family="Times,serif" font-size="24.00">foaf:gender</text>
</g>
<!-- n241 -->
<g id="node25" class="node">
<title>n241</title>
<polygon fill="#d73027" stroke="black" points="4583.21,-574.33 3942.21,-574.33 3942.21,-538.33 4583.21,-538.33 4583.21,-574.33"/>
<text text-anchor="middle" x="4262.71" y="-550.13" font-family="Times,serif" font-size="24.00">file:///home/lindenb/src/hts&#45;rdf/data/S1.grch37.bam</text>
</g>
<!-- n241&#45;&gt;n21 -->
<g id="edge31" class="edge">
<title>n241&#45;&gt;n21</title>
<path fill="none" stroke="black" d="M4387.89,-538.32C4484.46,-525.45 4621.42,-507.77 4741.71,-494.33 4815.67,-486.07 4896.94,-478.01 4968.56,-471.24"/>
<polygon fill="black" stroke="black" points="4968.97,-474.72 4978.6,-470.3 4968.32,-467.75 4968.97,-474.72"/>
<text text-anchor="middle" x="4812.71" y="-501.13" font-family="Times,serif" font-size="24.00">u:reference</text>
</g>
<!-- n241&#45;&gt;n61 -->
<g id="edge30" class="edge">
<title>n241&#45;&gt;n61</title>
<path fill="none" stroke="black" d="M4048.89,-538.32C3840.79,-522.03 3539.27,-499.24 3421.71,-494.33 2692.52,-463.92 2508.85,-507.93 1779.71,-476.33 1749.41,-475.02 1717.44,-473.14 1686.08,-471.01"/>
<polygon fill="black" stroke="black" points="1686.13,-467.51 1675.91,-470.32 1685.65,-474.49 1686.13,-467.51"/>
<text text-anchor="middle" x="3852.71" y="-501.13" font-family="Times,serif" font-size="24.00">u:sample</text>
</g>
<!-- o12 -->
<g id="node39" class="node">
<title>o12</title>
<ellipse fill="lightgrey" stroke="black" cx="4262.71" cy="-452.29" rx="408.92" ry="24.08"/>
<text text-anchor="middle" x="4262.71" y="-446.09" font-family="Times,serif" font-size="24.00">/home/lindenb/src/hts&#45;rdf/data/S1.grch37.bam</text>
</g>
<!-- n241&#45;&gt;o12 -->
<g id="edge29" class="edge">
<title>n241&#45;&gt;o12</title>
<path fill="none" stroke="black" d="M4262.71,-538.02C4262.71,-523.99 4262.71,-503.8 4262.71,-486.65"/>
<polygon fill="black" stroke="black" points="4266.21,-486.44 4262.71,-476.44 4259.21,-486.44 4266.21,-486.44"/>
<text text-anchor="middle" x="4327.21" y="-501.13" font-family="Times,serif" font-size="24.00">u:filename</text>
</g>
<!-- o15 -->
<g id="node42" class="node">
<title>o15</title>
<ellipse fill="lightgrey" stroke="black" cx="8417.71" cy="-122.04" rx="33.88" ry="24.08"/>
<text text-anchor="middle" x="8417.71" y="-115.84" font-family="Times,serif" font-size="24.00">S4</text>
</g>
<!-- n251&#45;&gt;o15 -->
<g id="edge39" class="edge">
<title>n251&#45;&gt;o15</title>
<path fill="none" stroke="black" d="M8417.71,-213.76C8417.71,-198.35 8417.71,-175.42 8417.71,-156.46"/>
<polygon fill="black" stroke="black" points="8421.21,-156.41 8417.71,-146.41 8414.21,-156.41 8421.21,-156.41"/>
<text text-anchor="middle" x="8478.71" y="-170.88" font-family="Times,serif" font-size="24.00">foaf:name</text>
</g>
<!-- n261&#45;&gt;n121 -->
<g id="edge1" class="edge">
<title>n261&#45;&gt;n121</title>
<path fill="none" stroke="black" d="M6561.47,-213.87C6558.81,-206.65 6556.1,-198.09 6554.71,-190.08 6552.46,-177.13 6552,-162.56 6552.19,-150.32"/>
<polygon fill="black" stroke="black" points="6555.69,-150.36 6552.49,-140.26 6548.69,-150.15 6555.69,-150.36"/>
<text text-anchor="middle" x="6650.21" y="-170.88" font-family="Times,serif" font-size="24.00">rdfs:subClassOf</text>
</g>
</g>
</svg>
