<?xml version="1.0" encoding="UTF-8" standalone="no"?>
<!DOCTYPE svg PUBLIC "-//W3C//DTD SVG 1.1//EN"
 "http://www.w3.org/Graphics/SVG/1.1/DTD/svg11.dtd">
<!-- Generated by graphviz version 2.43.0 (0)
 -->
<!-- Title: G Pages: 1 -->
<svg width="7984pt" height="582pt"
 viewBox="0.00 0.00 7984.42 582.33" xmlns="http://www.w3.org/2000/svg" xmlns:xlink="http://www.w3.org/1999/xlink">
<g id="graph0" class="graph" transform="scale(1 1) rotate(0) translate(4 578.33)">
<title>G</title>
<polygon fill="white" stroke="transparent" points="-4,4 -4,-578.33 7980.42,-578.33 7980.42,4 -4,4"/>
<!-- n01 -->
<g id="node1" class="node">
<title>n01</title>
<polygon fill="#f46d43" stroke="black" points="3450.21,-574.33 2827.21,-574.33 2827.21,-538.33 3450.21,-538.33 3450.21,-574.33"/>
<text text-anchor="middle" x="3138.71" y="-550.13" font-family="Times,serif" font-size="24.00">https://umr1087.univ&#45;nantes.fr/rdf/groups/family1</text>
</g>
<!-- n61 -->
<g id="node7" class="node">
<title>n61</title>
<polygon fill="#ffffbf" stroke="black" points="3428.71,-470.29 2848.71,-470.29 2848.71,-434.29 3428.71,-434.29 3428.71,-470.29"/>
<text text-anchor="middle" x="3138.71" y="-446.09" font-family="Times,serif" font-size="24.00">https://umr1087.univ&#45;nantes.fr/rdf/samples/S1</text>
</g>
<!-- n01&#45;&gt;n61 -->
<g id="edge35" class="edge">
<title>n01&#45;&gt;n61</title>
<path fill="none" stroke="black" d="M3138.71,-538.02C3138.71,-522.24 3138.71,-498.67 3138.71,-480.4"/>
<polygon fill="black" stroke="black" points="3142.21,-480.35 3138.71,-470.35 3135.21,-480.35 3142.21,-480.35"/>
<text text-anchor="middle" x="3216.21" y="-501.13" font-family="Times,serif" font-size="24.00">foaf:member</text>
</g>
<!-- n71 -->
<g id="node8" class="node">
<title>n71</title>
<polygon fill="#ffffbf" stroke="black" points="3922.71,-360.21 3342.71,-360.21 3342.71,-324.21 3922.71,-324.21 3922.71,-360.21"/>
<text text-anchor="middle" x="3632.71" y="-336.01" font-family="Times,serif" font-size="24.00">https://umr1087.univ&#45;nantes.fr/rdf/samples/S3</text>
</g>
<!-- n01&#45;&gt;n71 -->
<g id="edge37" class="edge">
<title>n01&#45;&gt;n71</title>
<path fill="none" stroke="black" d="M3222.8,-538.27C3247.08,-532.95 3273.54,-526.78 3297.71,-520.33 3360.73,-503.53 3384.49,-514.03 3437.71,-476.33 3459.49,-460.9 3453.46,-445.64 3473.71,-428.25 3505.26,-401.15 3546.9,-379.27 3579.65,-364.49"/>
<polygon fill="black" stroke="black" points="3581.34,-367.57 3589.07,-360.32 3578.51,-361.17 3581.34,-367.57"/>
<text text-anchor="middle" x="3551.21" y="-446.09" font-family="Times,serif" font-size="24.00">foaf:member</text>
</g>
<!-- n171 -->
<g id="node18" class="node">
<title>n171</title>
<polygon fill="#ffffbf" stroke="black" points="5199.71,-470.29 4619.71,-470.29 4619.71,-434.29 5199.71,-434.29 5199.71,-470.29"/>
<text text-anchor="middle" x="4909.71" y="-446.09" font-family="Times,serif" font-size="24.00">https://umr1087.univ&#45;nantes.fr/rdf/samples/S5</text>
</g>
<!-- n01&#45;&gt;n171 -->
<g id="edge38" class="edge">
<title>n01&#45;&gt;n171</title>
<path fill="none" stroke="black" d="M3450.23,-545.77C3730.39,-537.03 4108.59,-524.79 4179.71,-520.33 4373.41,-508.19 4595.38,-486.73 4743.2,-471.35"/>
<polygon fill="black" stroke="black" points="4743.69,-474.82 4753.27,-470.3 4742.96,-467.86 4743.69,-474.82"/>
<text text-anchor="middle" x="4577.21" y="-501.13" font-family="Times,serif" font-size="24.00">foaf:member</text>
</g>
<!-- n211 -->
<g id="node22" class="node">
<title>n211</title>
<polygon fill="#ffffbf" stroke="black" points="2664.71,-360.21 2084.71,-360.21 2084.71,-324.21 2664.71,-324.21 2664.71,-360.21"/>
<text text-anchor="middle" x="2374.71" y="-336.01" font-family="Times,serif" font-size="24.00">https://umr1087.univ&#45;nantes.fr/rdf/samples/S2</text>
</g>
<!-- n01&#45;&gt;n211 -->
<g id="edge36" class="edge">
<title>n01&#45;&gt;n211</title>
<path fill="none" stroke="black" d="M2826.9,-551.3C2692.27,-546.96 2559.48,-538.15 2533.71,-520.33 2496.86,-494.86 2520.97,-463.01 2492.71,-428.25 2471.64,-402.34 2440.85,-380.5 2416,-365.44"/>
<polygon fill="black" stroke="black" points="2417.53,-362.28 2407.14,-360.21 2413.97,-368.31 2417.53,-362.28"/>
<text text-anchor="middle" x="2587.21" y="-446.09" font-family="Times,serif" font-size="24.00">foaf:member</text>
</g>
<!-- o15 -->
<g id="node40" class="node">
<title>o15</title>
<ellipse fill="lightgrey" stroke="black" cx="2761.71" cy="-452.29" rx="69.09" ry="24.08"/>
<text text-anchor="middle" x="2761.71" y="-446.09" font-family="Times,serif" font-size="24.00">Fam01</text>
</g>
<!-- n01&#45;&gt;o15 -->
<g id="edge34" class="edge">
<title>n01&#45;&gt;o15</title>
<path fill="none" stroke="black" d="M3072.06,-538.31C3011.36,-522.67 2919.33,-498.61 2839.71,-476.33 2834.13,-474.77 2828.34,-473.12 2822.55,-471.45"/>
<polygon fill="black" stroke="black" points="2823.41,-468.06 2812.83,-468.62 2821.46,-474.78 2823.41,-468.06"/>
<text text-anchor="middle" x="3062.71" y="-501.13" font-family="Times,serif" font-size="24.00">foaf:name</text>
</g>
<!-- n11 -->
<g id="node2" class="node">
<title>n11</title>
<polygon fill="#fee08b" stroke="black" points="6317.71,-250.12 5627.71,-250.12 5627.71,-214.12 6317.71,-214.12 6317.71,-250.12"/>
<text text-anchor="middle" x="5972.71" y="-225.92" font-family="Times,serif" font-size="24.00">https://umr1087.univ&#45;nantes.fr/rdf/references/rotavirus</text>
</g>
<!-- n141 -->
<g id="node15" class="node">
<title>n141</title>
<polygon fill="#d73027" stroke="black" points="6213.21,-140.04 6080.21,-140.04 6080.21,-104.04 6213.21,-104.04 6213.21,-140.04"/>
<text text-anchor="middle" x="6146.71" y="-115.84" font-family="Times,serif" font-size="24.00">Rotavirus</text>
</g>
<!-- n11&#45;&gt;n141 -->
<g id="edge4" class="edge">
<title>n11&#45;&gt;n141</title>
<path fill="none" stroke="black" d="M6082.39,-214C6096.78,-208.17 6110.43,-200.41 6121.71,-190.08 6133.02,-179.72 6139.24,-163.75 6142.64,-150"/>
<polygon fill="black" stroke="black" points="6146.1,-150.55 6144.74,-140.04 6139.25,-149.11 6146.1,-150.55"/>
<text text-anchor="middle" x="6183.71" y="-170.88" font-family="Times,serif" font-size="24.00">u:taxon</text>
</g>
<!-- o1 -->
<g id="node26" class="node">
<title>o1</title>
<ellipse fill="lightgrey" stroke="black" cx="5972.71" cy="-122.04" rx="89.19" ry="24.08"/>
<text text-anchor="middle" x="5972.71" y="-115.84" font-family="Times,serif" font-size="24.00">rotavirus</text>
</g>
<!-- n11&#45;&gt;o1 -->
<g id="edge2" class="edge">
<title>n11&#45;&gt;o1</title>
<path fill="none" stroke="black" d="M5972.71,-213.76C5972.71,-198.35 5972.71,-175.42 5972.71,-156.46"/>
<polygon fill="black" stroke="black" points="5976.21,-156.41 5972.71,-146.41 5969.21,-156.41 5976.21,-156.41"/>
<text text-anchor="middle" x="6045.21" y="-170.88" font-family="Times,serif" font-size="24.00">u:genomeId</text>
</g>
<!-- o2 -->
<g id="node27" class="node">
<title>o2</title>
<ellipse fill="lightgrey" stroke="black" cx="5688.71" cy="-122.04" rx="176.55" ry="24.08"/>
<text text-anchor="middle" x="5688.71" y="-115.84" font-family="Times,serif" font-size="24.00">data/rotavirus_rf.fa</text>
</g>
<!-- n11&#45;&gt;o2 -->
<g id="edge3" class="edge">
<title>n11&#45;&gt;o2</title>
<path fill="none" stroke="black" d="M5911.95,-214.03C5889.1,-207.17 5863.01,-198.82 5839.71,-190.08 5807.61,-178.06 5772.58,-162.65 5744.35,-149.64"/>
<polygon fill="black" stroke="black" points="5745.59,-146.36 5735.05,-145.33 5742.65,-152.71 5745.59,-146.36"/>
<text text-anchor="middle" x="5904.21" y="-170.88" font-family="Times,serif" font-size="24.00">u:filename</text>
</g>
<!-- n21 -->
<g id="node3" class="node">
<title>n21</title>
<polygon fill="#fee08b" stroke="black" points="1501.71,-470.29 835.71,-470.29 835.71,-434.29 1501.71,-434.29 1501.71,-470.29"/>
<text text-anchor="middle" x="1168.71" y="-446.09" font-family="Times,serif" font-size="24.00">https://umr1087.univ&#45;nantes.fr/rdf/references/grch37</text>
</g>
<!-- n111 -->
<g id="node12" class="node">
<title>n111</title>
<polygon fill="#d73027" stroke="black" points="5515.21,-360.21 5324.21,-360.21 5324.21,-324.21 5515.21,-324.21 5515.21,-360.21"/>
<text text-anchor="middle" x="5419.71" y="-336.01" font-family="Times,serif" font-size="24.00">Homo Sapiens</text>
</g>
<!-- n21&#45;&gt;n111 -->
<g id="edge27" class="edge">
<title>n21&#45;&gt;n111</title>
<path fill="none" stroke="black" d="M1396.8,-434.29C1436.42,-431.86 1477.25,-429.7 1515.71,-428.25 2376.91,-395.69 2593.05,-426.9 3454.71,-410.25 4120.65,-397.38 4287.16,-392.44 4952.71,-366.25 5076.75,-361.37 5219.25,-354.1 5313.88,-349.03"/>
<polygon fill="black" stroke="black" points="5314.23,-352.52 5324.03,-348.49 5313.86,-345.53 5314.23,-352.52"/>
<text text-anchor="middle" x="4506.71" y="-391.05" font-family="Times,serif" font-size="24.00">u:taxon</text>
</g>
<!-- o10 -->
<g id="node35" class="node">
<title>o10</title>
<ellipse fill="lightgrey" stroke="black" cx="1044.71" cy="-342.21" rx="72.25" ry="24.08"/>
<text text-anchor="middle" x="1044.71" y="-336.01" font-family="Times,serif" font-size="24.00">grch37</text>
</g>
<!-- n21&#45;&gt;o10 -->
<g id="edge25" class="edge">
<title>n21&#45;&gt;o10</title>
<path fill="none" stroke="black" d="M1097.04,-434.18C1084.22,-428.36 1072,-420.6 1062.71,-410.25 1054.42,-401.03 1049.89,-388.39 1047.43,-376.57"/>
<polygon fill="black" stroke="black" points="1050.85,-375.8 1045.76,-366.51 1043.95,-376.95 1050.85,-375.8"/>
<text text-anchor="middle" x="1135.21" y="-391.05" font-family="Times,serif" font-size="24.00">u:genomeId</text>
</g>
<!-- o11 -->
<g id="node36" class="node">
<title>o11</title>
<ellipse fill="lightgrey" stroke="black" cx="1280.71" cy="-342.21" rx="145.83" ry="24.08"/>
<text text-anchor="middle" x="1280.71" y="-336.01" font-family="Times,serif" font-size="24.00">data/hg19.fasta</text>
</g>
<!-- n21&#45;&gt;o11 -->
<g id="edge26" class="edge">
<title>n21&#45;&gt;o11</title>
<path fill="none" stroke="black" d="M1186.7,-433.93C1203.59,-417.63 1229.21,-392.91 1249.44,-373.38"/>
<polygon fill="black" stroke="black" points="1252.13,-375.65 1256.9,-366.18 1247.27,-370.61 1252.13,-375.65"/>
<text text-anchor="middle" x="1303.21" y="-391.05" font-family="Times,serif" font-size="24.00">u:filename</text>
</g>
<!-- n31 -->
<g id="node4" class="node">
<title>n31</title>
<polygon fill="#a50026" stroke="black" points="6999.71,-360.21 6413.71,-360.21 6413.71,-324.21 6999.71,-324.21 6999.71,-360.21"/>
<text text-anchor="middle" x="6706.71" y="-336.01" font-family="Times,serif" font-size="24.00">file:///home/lindenb/src/hts&#45;rdf/data/S4.RF.bam</text>
</g>
<!-- n31&#45;&gt;n11 -->
<g id="edge21" class="edge">
<title>n31&#45;&gt;n11</title>
<path fill="none" stroke="black" d="M6591.21,-324.2C6457.2,-304.47 6236.98,-272.04 6098.66,-251.67"/>
<polygon fill="black" stroke="black" points="6098.84,-248.16 6088.44,-250.17 6097.82,-255.09 6098.84,-248.16"/>
<text text-anchor="middle" x="6497.71" y="-280.97" font-family="Times,serif" font-size="24.00">u:reference</text>
</g>
<!-- n231 -->
<g id="node24" class="node">
<title>n231</title>
<polygon fill="#ffffbf" stroke="black" points="7675.71,-250.12 7095.71,-250.12 7095.71,-214.12 7675.71,-214.12 7675.71,-250.12"/>
<text text-anchor="middle" x="7385.71" y="-225.92" font-family="Times,serif" font-size="24.00">https://umr1087.univ&#45;nantes.fr/rdf/samples/S4</text>
</g>
<!-- n31&#45;&gt;n231 -->
<g id="edge20" class="edge">
<title>n31&#45;&gt;n231</title>
<path fill="none" stroke="black" d="M6813.55,-324.2C6937.27,-304.51 7140.42,-272.17 7268.42,-251.79"/>
<polygon fill="black" stroke="black" points="7269.32,-255.19 7278.65,-250.17 7268.22,-248.28 7269.32,-255.19"/>
<text text-anchor="middle" x="7181.71" y="-280.97" font-family="Times,serif" font-size="24.00">u:sample</text>
</g>
<!-- o8 -->
<g id="node33" class="node">
<title>o8</title>
<ellipse fill="lightgrey" stroke="black" cx="6706.71" cy="-232.12" rx="370.55" ry="24.08"/>
<text text-anchor="middle" x="6706.71" y="-225.92" font-family="Times,serif" font-size="24.00">/home/lindenb/src/hts&#45;rdf/data/S4.RF.bam</text>
</g>
<!-- n31&#45;&gt;o8 -->
<g id="edge19" class="edge">
<title>n31&#45;&gt;o8</title>
<path fill="none" stroke="black" d="M6706.71,-323.84C6706.71,-308.44 6706.71,-285.5 6706.71,-266.54"/>
<polygon fill="black" stroke="black" points="6710.21,-266.5 6706.71,-256.5 6703.21,-266.5 6710.21,-266.5"/>
<text text-anchor="middle" x="6771.21" y="-280.97" font-family="Times,serif" font-size="24.00">u:filename</text>
</g>
<!-- n41 -->
<g id="node5" class="node">
<title>n41</title>
<polygon fill="#fdae61" stroke="black" points="2914.21,-360.21 2683.21,-360.21 2683.21,-324.21 2914.21,-324.21 2914.21,-360.21"/>
<text text-anchor="middle" x="2798.71" y="-336.01" font-family="Times,serif" font-size="24.00">Turner Syndrome</text>
</g>
<!-- n51 -->
<g id="node6" class="node">
<title>n51</title>
<polygon fill="#a50026" stroke="black" points="1489.21,-574.33 848.21,-574.33 848.21,-538.33 1489.21,-538.33 1489.21,-574.33"/>
<text text-anchor="middle" x="1168.71" y="-550.13" font-family="Times,serif" font-size="24.00">file:///home/lindenb/src/hts&#45;rdf/data/S2.grch37.bam</text>
</g>
<!-- n51&#45;&gt;n21 -->
<g id="edge24" class="edge">
<title>n51&#45;&gt;n21</title>
<path fill="none" stroke="black" d="M1168.71,-538.02C1168.71,-522.24 1168.71,-498.67 1168.71,-480.4"/>
<polygon fill="black" stroke="black" points="1172.21,-480.35 1168.71,-470.35 1165.21,-480.35 1172.21,-480.35"/>
<text text-anchor="middle" x="1239.71" y="-501.13" font-family="Times,serif" font-size="24.00">u:reference</text>
</g>
<!-- n51&#45;&gt;n211 -->
<g id="edge23" class="edge">
<title>n51&#45;&gt;n211</title>
<path fill="none" stroke="black" d="M1347.26,-538.31C1402.92,-526.87 1462.33,-507.86 1510.71,-476.33 1533.07,-461.76 1523.48,-441.4 1546.71,-428.25 1634.97,-378.27 1875.41,-357.53 2074.59,-349"/>
<polygon fill="black" stroke="black" points="2074.8,-352.49 2084.65,-348.57 2074.51,-345.5 2074.8,-352.49"/>
<text text-anchor="middle" x="1601.71" y="-446.09" font-family="Times,serif" font-size="24.00">u:sample</text>
</g>
<!-- o9 -->
<g id="node34" class="node">
<title>o9</title>
<ellipse fill="lightgrey" stroke="black" cx="408.71" cy="-452.29" rx="408.92" ry="24.08"/>
<text text-anchor="middle" x="408.71" y="-446.09" font-family="Times,serif" font-size="24.00">/home/lindenb/src/hts&#45;rdf/data/S2.grch37.bam</text>
</g>
<!-- n51&#45;&gt;o9 -->
<g id="edge22" class="edge">
<title>n51&#45;&gt;o9</title>
<path fill="none" stroke="black" d="M1041.93,-538.31C914.38,-521.19 716.99,-494.68 576.53,-475.82"/>
<polygon fill="black" stroke="black" points="576.89,-472.34 566.52,-474.48 575.96,-479.28 576.89,-472.34"/>
<text text-anchor="middle" x="966.21" y="-501.13" font-family="Times,serif" font-size="24.00">u:filename</text>
</g>
<!-- n61&#45;&gt;n41 -->
<g id="edge14" class="edge">
<title>n61&#45;&gt;n41</title>
<path fill="none" stroke="black" d="M2887.36,-434.25C2858.27,-428.43 2834.44,-420.65 2821.71,-410.25 2809.86,-400.58 2804.09,-384.49 2801.3,-370.5"/>
<polygon fill="black" stroke="black" points="2804.71,-369.68 2799.69,-360.35 2797.8,-370.77 2804.71,-369.68"/>
<text text-anchor="middle" x="2903.71" y="-391.05" font-family="Times,serif" font-size="24.00">u:has&#45;disease</text>
</g>
<!-- n61&#45;&gt;n71 -->
<g id="edge12" class="edge">
<title>n61&#45;&gt;n71</title>
<path fill="none" stroke="black" d="M3241.59,-434.29C3261.09,-428.47 3280.69,-420.67 3297.71,-410.25 3310.86,-402.19 3307.09,-391.49 3320.71,-384.25 3338.37,-374.86 3371.44,-367.49 3409.67,-361.74"/>
<polygon fill="black" stroke="black" points="3410.64,-365.14 3420.03,-360.24 3409.63,-358.21 3410.64,-365.14"/>
<text text-anchor="middle" x="3385.71" y="-391.05" font-family="Times,serif" font-size="24.00">rel:childOf</text>
</g>
<!-- n151 -->
<g id="node16" class="node">
<title>n151</title>
<polygon fill="#fdae61" stroke="black" points="3406.21,-140.04 3267.21,-140.04 3267.21,-104.04 3406.21,-104.04 3406.21,-140.04"/>
<text text-anchor="middle" x="3336.71" y="-115.84" font-family="Times,serif" font-size="24.00">COVID&#45;19</text>
</g>
<!-- n61&#45;&gt;n151 -->
<g id="edge13" class="edge">
<title>n61&#45;&gt;n151</title>
<path fill="none" stroke="black" d="M3240.49,-434.17C3252.74,-428.32 3263.98,-420.56 3272.71,-410.25 3312.13,-363.69 3277.78,-333.79 3290.71,-274.17 3300.27,-230.05 3316.55,-180.19 3326.96,-150.21"/>
<polygon fill="black" stroke="black" points="3330.37,-151.07 3330.38,-140.48 3323.76,-148.75 3330.37,-151.07"/>
<text text-anchor="middle" x="3372.71" y="-280.97" font-family="Times,serif" font-size="24.00">u:has&#45;disease</text>
</g>
<!-- n61&#45;&gt;n211 -->
<g id="edge11" class="edge">
<title>n61&#45;&gt;n211</title>
<path fill="none" stroke="black" d="M2911.66,-434.27C2816.41,-426.53 2717.09,-417.5 2670.71,-410.25 2594.03,-398.26 2507.59,-377.87 2448.01,-362.72"/>
<polygon fill="black" stroke="black" points="2448.87,-359.33 2438.32,-360.24 2447.14,-366.11 2448.87,-359.33"/>
<text text-anchor="middle" x="2735.71" y="-391.05" font-family="Times,serif" font-size="24.00">rel:childOf</text>
</g>
<!-- o4 -->
<g id="node29" class="node">
<title>o4</title>
<ellipse fill="lightgrey" stroke="black" cx="2985.71" cy="-342.21" rx="33.88" ry="24.08"/>
<text text-anchor="middle" x="2985.71" y="-336.01" font-family="Times,serif" font-size="24.00">S1</text>
</g>
<!-- n61&#45;&gt;o4 -->
<g id="edge9" class="edge">
<title>n61&#45;&gt;o4</title>
<path fill="none" stroke="black" d="M3039.77,-434.24C3026.35,-428.41 3013.76,-420.64 3003.71,-410.25 2995.02,-401.27 2990.42,-388.58 2988.02,-376.64"/>
<polygon fill="black" stroke="black" points="2991.43,-375.81 2986.42,-366.47 2984.51,-376.89 2991.43,-375.81"/>
<text text-anchor="middle" x="3064.71" y="-391.05" font-family="Times,serif" font-size="24.00">foaf:name</text>
</g>
<!-- o5 -->
<g id="node30" class="node">
<title>o5</title>
<ellipse fill="lightgrey" stroke="black" cx="3130.71" cy="-342.21" rx="69.09" ry="24.08"/>
<text text-anchor="middle" x="3130.71" y="-336.01" font-family="Times,serif" font-size="24.00">female</text>
</g>
<!-- n61&#45;&gt;o5 -->
<g id="edge10" class="edge">
<title>n61&#45;&gt;o5</title>
<path fill="none" stroke="black" d="M3135.19,-434.2C3133.83,-426.86 3132.44,-418.17 3131.71,-410.25 3130.71,-399.38 3130.3,-387.48 3130.2,-376.77"/>
<polygon fill="black" stroke="black" points="3133.7,-376.52 3130.18,-366.53 3126.7,-376.53 3133.7,-376.52"/>
<text text-anchor="middle" x="3202.21" y="-391.05" font-family="Times,serif" font-size="24.00">foaf:gender</text>
</g>
<!-- n101 -->
<g id="node11" class="node">
<title>n101</title>
<polygon fill="#fdae61" stroke="black" points="3566.71,-250.12 3336.71,-250.12 3336.71,-214.12 3566.71,-214.12 3566.71,-250.12"/>
<text text-anchor="middle" x="3451.71" y="-225.92" font-family="Times,serif" font-size="24.00">Severe COVID&#45;19</text>
</g>
<!-- n71&#45;&gt;n101 -->
<g id="edge41" class="edge">
<title>n71&#45;&gt;n101</title>
<path fill="none" stroke="black" d="M3513.4,-324.14C3499.2,-318.26 3485.83,-310.47 3474.71,-300.17 3463.56,-289.84 3457.81,-273.87 3454.85,-260.11"/>
<polygon fill="black" stroke="black" points="3458.28,-259.38 3453.09,-250.14 3451.39,-260.6 3458.28,-259.38"/>
<text text-anchor="middle" x="3556.71" y="-280.97" font-family="Times,serif" font-size="24.00">u:has&#45;disease</text>
</g>
<!-- o16 -->
<g id="node41" class="node">
<title>o16</title>
<ellipse fill="lightgrey" stroke="black" cx="3660.71" cy="-232.12" rx="33.88" ry="24.08"/>
<text text-anchor="middle" x="3660.71" y="-225.92" font-family="Times,serif" font-size="24.00">S3</text>
</g>
<!-- n71&#45;&gt;o16 -->
<g id="edge39" class="edge">
<title>n71&#45;&gt;o16</title>
<path fill="none" stroke="black" d="M3637.21,-323.84C3641.24,-308.26 3647.27,-284.98 3652.21,-265.91"/>
<polygon fill="black" stroke="black" points="3655.64,-266.66 3654.76,-256.1 3648.86,-264.9 3655.64,-266.66"/>
<text text-anchor="middle" x="3710.71" y="-280.97" font-family="Times,serif" font-size="24.00">foaf:name</text>
</g>
<!-- o17 -->
<g id="node42" class="node">
<title>o17</title>
<ellipse fill="lightgrey" stroke="black" cx="3805.71" cy="-232.12" rx="53.07" ry="24.08"/>
<text text-anchor="middle" x="3805.71" y="-225.92" font-family="Times,serif" font-size="24.00">male</text>
</g>
<!-- n71&#45;&gt;o17 -->
<g id="edge40" class="edge">
<title>n71&#45;&gt;o17</title>
<path fill="none" stroke="black" d="M3734.14,-324.16C3749.23,-318.36 3763.71,-310.58 3775.71,-300.17 3785.97,-291.26 3792.88,-278.16 3797.46,-265.9"/>
<polygon fill="black" stroke="black" points="3800.81,-266.93 3800.65,-256.34 3794.17,-264.71 3800.81,-266.93"/>
<text text-anchor="middle" x="3864.21" y="-280.97" font-family="Times,serif" font-size="24.00">foaf:gender</text>
</g>
<!-- n81 -->
<g id="node9" class="node">
<title>n81</title>
<polygon fill="#a50026" stroke="black" points="6293.21,-574.33 5652.21,-574.33 5652.21,-538.33 6293.21,-538.33 6293.21,-574.33"/>
<text text-anchor="middle" x="5972.71" y="-550.13" font-family="Times,serif" font-size="24.00">file:///home/lindenb/src/hts&#45;rdf/data/S3.grch38.bam</text>
</g>
<!-- n81&#45;&gt;n71 -->
<g id="edge6" class="edge">
<title>n81&#45;&gt;n71</title>
<path fill="none" stroke="black" d="M5652.04,-555.48C5417.27,-553.21 5091.19,-545.13 4805.71,-520.33 4669.26,-508.48 4618.48,-546.24 4500.71,-476.33 4477.75,-462.71 4487.94,-441.4 4464.71,-428.25 4375.82,-377.94 4133.35,-357.25 3932.95,-348.81"/>
<polygon fill="black" stroke="black" points="3932.98,-345.31 3922.84,-348.39 3932.69,-352.3 3932.98,-345.31"/>
<text text-anchor="middle" x="4555.71" y="-446.09" font-family="Times,serif" font-size="24.00">u:sample</text>
</g>
<!-- n161 -->
<g id="node17" class="node">
<title>n161</title>
<polygon fill="#fee08b" stroke="black" points="6305.71,-470.29 5639.71,-470.29 5639.71,-434.29 6305.71,-434.29 6305.71,-470.29"/>
<text text-anchor="middle" x="5972.71" y="-446.09" font-family="Times,serif" font-size="24.00">https://umr1087.univ&#45;nantes.fr/rdf/references/grch38</text>
</g>
<!-- n81&#45;&gt;n161 -->
<g id="edge7" class="edge">
<title>n81&#45;&gt;n161</title>
<path fill="none" stroke="black" d="M5972.71,-538.02C5972.71,-522.24 5972.71,-498.67 5972.71,-480.4"/>
<polygon fill="black" stroke="black" points="5976.21,-480.35 5972.71,-470.35 5969.21,-480.35 5976.21,-480.35"/>
<text text-anchor="middle" x="6043.71" y="-501.13" font-family="Times,serif" font-size="24.00">u:reference</text>
</g>
<!-- o3 -->
<g id="node28" class="node">
<title>o3</title>
<ellipse fill="lightgrey" stroke="black" cx="6732.71" cy="-452.29" rx="408.92" ry="24.08"/>
<text text-anchor="middle" x="6732.71" y="-446.09" font-family="Times,serif" font-size="24.00">/home/lindenb/src/hts&#45;rdf/data/S3.grch38.bam</text>
</g>
<!-- n81&#45;&gt;o3 -->
<g id="edge5" class="edge">
<title>n81&#45;&gt;o3</title>
<path fill="none" stroke="black" d="M6262.18,-538.32C6314.74,-533.62 6368.96,-527.72 6419.71,-520.33 6491.73,-509.85 6571.97,-492.55 6633.18,-478.15"/>
<polygon fill="black" stroke="black" points="6634.3,-481.48 6643.22,-475.77 6632.68,-474.67 6634.3,-481.48"/>
<text text-anchor="middle" x="6622.21" y="-501.13" font-family="Times,serif" font-size="24.00">u:filename</text>
</g>
<!-- n91 -->
<g id="node10" class="node">
<title>n91</title>
<polygon fill="#a50026" stroke="black" points="4367.21,-574.33 3726.21,-574.33 3726.21,-538.33 4367.21,-538.33 4367.21,-574.33"/>
<text text-anchor="middle" x="4046.71" y="-550.13" font-family="Times,serif" font-size="24.00">file:///home/lindenb/src/hts&#45;rdf/data/S1.grch38.bam</text>
</g>
<!-- n91&#45;&gt;n61 -->
<g id="edge48" class="edge">
<title>n91&#45;&gt;n61</title>
<path fill="none" stroke="black" d="M3895.24,-538.31C3730.62,-519.81 3468.62,-490.37 3300.18,-471.44"/>
<polygon fill="black" stroke="black" points="3300.55,-467.96 3290.23,-470.32 3299.77,-474.91 3300.55,-467.96"/>
<text text-anchor="middle" x="3781.71" y="-501.13" font-family="Times,serif" font-size="24.00">u:sample</text>
</g>
<!-- n91&#45;&gt;n161 -->
<g id="edge49" class="edge">
<title>n91&#45;&gt;n161</title>
<path fill="none" stroke="black" d="M4367.24,-540.99C4687.28,-526.28 5193.15,-501.98 5630.71,-476.33 5658.87,-474.68 5688.34,-472.85 5717.65,-470.97"/>
<polygon fill="black" stroke="black" points="5718.26,-474.43 5728.01,-470.3 5717.8,-467.45 5718.26,-474.43"/>
<text text-anchor="middle" x="5354.71" y="-501.13" font-family="Times,serif" font-size="24.00">u:reference</text>
</g>
<!-- o19 -->
<g id="node44" class="node">
<title>o19</title>
<ellipse fill="lightgrey" stroke="black" cx="4046.71" cy="-452.29" rx="408.92" ry="24.08"/>
<text text-anchor="middle" x="4046.71" y="-446.09" font-family="Times,serif" font-size="24.00">/home/lindenb/src/hts&#45;rdf/data/S1.grch38.bam</text>
</g>
<!-- n91&#45;&gt;o19 -->
<g id="edge47" class="edge">
<title>n91&#45;&gt;o19</title>
<path fill="none" stroke="black" d="M4046.71,-538.02C4046.71,-523.99 4046.71,-503.8 4046.71,-486.65"/>
<polygon fill="black" stroke="black" points="4050.21,-486.44 4046.71,-476.44 4043.21,-486.44 4050.21,-486.44"/>
<text text-anchor="middle" x="4111.21" y="-501.13" font-family="Times,serif" font-size="24.00">u:filename</text>
</g>
<!-- n101&#45;&gt;n151 -->
<g id="edge52" class="edge">
<title>n101&#45;&gt;n151</title>
<path fill="none" stroke="black" d="M3433.49,-214C3414.31,-195.97 3383.96,-167.45 3362.37,-147.16"/>
<polygon fill="black" stroke="black" points="3364.53,-144.39 3354.84,-140.09 3359.73,-149.49 3364.53,-144.39"/>
<text text-anchor="middle" x="3503.21" y="-170.88" font-family="Times,serif" font-size="24.00">rdfs:subClassOf</text>
</g>
<!-- n241 -->
<g id="node25" class="node">
<title>n241</title>
<polygon fill="#d73027" stroke="black" points="5464.21,-250.12 5375.21,-250.12 5375.21,-214.12 5464.21,-214.12 5464.21,-250.12"/>
<text text-anchor="middle" x="5419.71" y="-225.92" font-family="Times,serif" font-size="24.00">Homo</text>
</g>
<!-- n111&#45;&gt;n241 -->
<g id="edge42" class="edge">
<title>n111&#45;&gt;n241</title>
<path fill="none" stroke="black" d="M5419.71,-323.84C5419.71,-306.75 5419.71,-280.38 5419.71,-260.47"/>
<polygon fill="black" stroke="black" points="5423.21,-260.45 5419.71,-250.45 5416.21,-260.45 5423.21,-260.45"/>
<text text-anchor="middle" x="5515.21" y="-280.97" font-family="Times,serif" font-size="24.00">rdfs:subClassOf</text>
</g>
<!-- n121 -->
<g id="node13" class="node">
<title>n121</title>
<polygon fill="#d73027" stroke="black" points="5494.21,-140.04 5345.21,-140.04 5345.21,-104.04 5494.21,-104.04 5494.21,-140.04"/>
<text text-anchor="middle" x="5419.71" y="-115.84" font-family="Times,serif" font-size="24.00">Hominidae</text>
</g>
<!-- n131 -->
<g id="node14" class="node">
<title>n131</title>
<polygon fill="#d73027" stroke="black" points="5699.21,-36 5610.21,-36 5610.21,0 5699.21,0 5699.21,-36"/>
<text text-anchor="middle" x="5654.71" y="-11.8" font-family="Times,serif" font-size="24.00">ROOT</text>
</g>
<!-- n121&#45;&gt;n131 -->
<g id="edge18" class="edge">
<title>n121&#45;&gt;n131</title>
<path fill="none" stroke="black" d="M5459.04,-103.96C5499.46,-86.41 5562.45,-59.06 5605.99,-40.15"/>
<polygon fill="black" stroke="black" points="5607.47,-43.33 5615.25,-36.14 5604.68,-36.91 5607.47,-43.33"/>
<text text-anchor="middle" x="5667.21" y="-60.8" font-family="Times,serif" font-size="24.00">rdfs:subClassOf</text>
</g>
<!-- n141&#45;&gt;n131 -->
<g id="edge28" class="edge">
<title>n141&#45;&gt;n131</title>
<path fill="none" stroke="black" d="M6092.93,-103.96C6085.5,-101.83 6077.94,-99.78 6070.71,-98 5942.61,-66.51 5789.7,-40.35 5709.7,-27.52"/>
<polygon fill="black" stroke="black" points="5709.8,-23.99 5699.37,-25.87 5708.7,-30.91 5709.8,-23.99"/>
<text text-anchor="middle" x="6087.21" y="-60.8" font-family="Times,serif" font-size="24.00">rdfs:subClassOf</text>
</g>
<!-- n181 -->
<g id="node19" class="node">
<title>n181</title>
<polygon fill="#fdae61" stroke="black" points="3530.71,-36 3142.71,-36 3142.71,0 3530.71,0 3530.71,-36"/>
<text text-anchor="middle" x="3336.71" y="-11.8" font-family="Times,serif" font-size="24.00">Coronavirus infectious disease</text>
</g>
<!-- n151&#45;&gt;n181 -->
<g id="edge8" class="edge">
<title>n151&#45;&gt;n181</title>
<path fill="none" stroke="black" d="M3336.71,-103.73C3336.71,-87.95 3336.71,-64.38 3336.71,-46.11"/>
<polygon fill="black" stroke="black" points="3340.21,-46.05 3336.71,-36.05 3333.21,-46.05 3340.21,-46.05"/>
<text text-anchor="middle" x="3432.21" y="-60.8" font-family="Times,serif" font-size="24.00">rdfs:subClassOf</text>
</g>
<!-- n161&#45;&gt;n111 -->
<g id="edge17" class="edge">
<title>n161&#45;&gt;n111</title>
<path fill="none" stroke="black" d="M5885.69,-434.28C5785.51,-414.7 5621.38,-382.62 5517.03,-362.23"/>
<polygon fill="black" stroke="black" points="5517.61,-358.78 5507.13,-360.29 5516.27,-365.65 5517.61,-358.78"/>
<text text-anchor="middle" x="5807.71" y="-391.05" font-family="Times,serif" font-size="24.00">u:taxon</text>
</g>
<!-- o6 -->
<g id="node31" class="node">
<title>o6</title>
<ellipse fill="lightgrey" stroke="black" cx="6096.71" cy="-342.21" rx="72.25" ry="24.08"/>
<text text-anchor="middle" x="6096.71" y="-336.01" font-family="Times,serif" font-size="24.00">grch38</text>
</g>
<!-- n161&#45;&gt;o6 -->
<g id="edge15" class="edge">
<title>n161&#45;&gt;o6</title>
<path fill="none" stroke="black" d="M6025.9,-434.13C6039.03,-428.09 6052.3,-420.24 6062.71,-410.25 6072.59,-400.77 6080.08,-387.79 6085.49,-375.78"/>
<polygon fill="black" stroke="black" points="6088.76,-377.02 6089.38,-366.44 6082.3,-374.33 6088.76,-377.02"/>
<text text-anchor="middle" x="6152.21" y="-391.05" font-family="Times,serif" font-size="24.00">u:genomeId</text>
</g>
<!-- o7 -->
<g id="node32" class="node">
<title>o7</title>
<ellipse fill="lightgrey" stroke="black" cx="5860.71" cy="-342.21" rx="145.83" ry="24.08"/>
<text text-anchor="middle" x="5860.71" y="-336.01" font-family="Times,serif" font-size="24.00">data/hg38.fasta</text>
</g>
<!-- n161&#45;&gt;o7 -->
<g id="edge16" class="edge">
<title>n161&#45;&gt;o7</title>
<path fill="none" stroke="black" d="M5954.71,-433.93C5937.83,-417.63 5912.21,-392.91 5891.98,-373.38"/>
<polygon fill="black" stroke="black" points="5894.14,-370.61 5884.52,-366.18 5889.28,-375.65 5894.14,-370.61"/>
<text text-anchor="middle" x="5994.21" y="-391.05" font-family="Times,serif" font-size="24.00">u:filename</text>
</g>
<!-- o13 -->
<g id="node38" class="node">
<title>o13</title>
<ellipse fill="lightgrey" stroke="black" cx="4909.71" cy="-342.21" rx="33.88" ry="24.08"/>
<text text-anchor="middle" x="4909.71" y="-336.01" font-family="Times,serif" font-size="24.00">S5</text>
</g>
<!-- n171&#45;&gt;o13 -->
<g id="edge32" class="edge">
<title>n171&#45;&gt;o13</title>
<path fill="none" stroke="black" d="M4909.71,-433.93C4909.71,-418.52 4909.71,-395.58 4909.71,-376.63"/>
<polygon fill="black" stroke="black" points="4913.21,-376.58 4909.71,-366.58 4906.21,-376.58 4913.21,-376.58"/>
<text text-anchor="middle" x="4970.71" y="-391.05" font-family="Times,serif" font-size="24.00">foaf:name</text>
</g>
<!-- n191 -->
<g id="node20" class="node">
<title>n191</title>
<polygon fill="#d73027" stroke="black" points="5621.71,-470.29 5217.71,-470.29 5217.71,-434.29 5621.71,-434.29 5621.71,-470.29"/>
<text text-anchor="middle" x="5419.71" y="-446.09" font-family="Times,serif" font-size="24.00">Homo sapiens neanderthalensis</text>
</g>
<!-- n191&#45;&gt;n111 -->
<g id="edge43" class="edge">
<title>n191&#45;&gt;n111</title>
<path fill="none" stroke="black" d="M5419.71,-433.93C5419.71,-416.83 5419.71,-390.46 5419.71,-370.55"/>
<polygon fill="black" stroke="black" points="5423.21,-370.53 5419.71,-360.53 5416.21,-370.53 5423.21,-370.53"/>
<text text-anchor="middle" x="5515.21" y="-391.05" font-family="Times,serif" font-size="24.00">rdfs:subClassOf</text>
</g>
<!-- n201 -->
<g id="node21" class="node">
<title>n201</title>
<polygon fill="#a50026" stroke="black" points="7079.21,-574.33 6438.21,-574.33 6438.21,-538.33 7079.21,-538.33 7079.21,-574.33"/>
<text text-anchor="middle" x="6758.71" y="-550.13" font-family="Times,serif" font-size="24.00">file:///home/lindenb/src/hts&#45;rdf/data/S5.grch38.bam</text>
</g>
<!-- n201&#45;&gt;n161 -->
<g id="edge46" class="edge">
<title>n201&#45;&gt;n161</title>
<path fill="none" stroke="black" d="M6745.44,-538.13C6733.06,-523.54 6713.16,-503.55 6690.71,-494.33 6652.02,-478.45 6356.46,-478.74 6314.71,-476.33 6286.15,-474.69 6256.26,-472.85 6226.55,-470.94"/>
<polygon fill="black" stroke="black" points="6226.68,-467.45 6216.48,-470.3 6226.23,-474.43 6226.68,-467.45"/>
<text text-anchor="middle" x="6797.71" y="-501.13" font-family="Times,serif" font-size="24.00">u:reference</text>
</g>
<!-- n201&#45;&gt;n171 -->
<g id="edge45" class="edge">
<title>n201&#45;&gt;n171</title>
<path fill="none" stroke="black" d="M6503.01,-538.32C6438.54,-533.28 6369.53,-527.23 6305.71,-520.33 6222.28,-511.32 6202.36,-500.95 6118.71,-494.33 5715.44,-462.42 5612.76,-495.88 5208.71,-476.33 5179.97,-474.94 5149.72,-473.08 5119.93,-471.01"/>
<polygon fill="black" stroke="black" points="5120.07,-467.51 5109.85,-470.3 5119.58,-474.5 5120.07,-467.51"/>
<text text-anchor="middle" x="6360.71" y="-501.13" font-family="Times,serif" font-size="24.00">u:sample</text>
</g>
<!-- o18 -->
<g id="node43" class="node">
<title>o18</title>
<ellipse fill="lightgrey" stroke="black" cx="7567.71" cy="-452.29" rx="408.92" ry="24.08"/>
<text text-anchor="middle" x="7567.71" y="-446.09" font-family="Times,serif" font-size="24.00">/home/lindenb/src/hts&#45;rdf/data/S5.grch38.bam</text>
</g>
<!-- n201&#45;&gt;o18 -->
<g id="edge44" class="edge">
<title>n201&#45;&gt;o18</title>
<path fill="none" stroke="black" d="M6893.66,-538.31C7030,-521.11 7241.33,-494.46 7390.96,-475.58"/>
<polygon fill="black" stroke="black" points="7391.7,-479.02 7401.18,-474.3 7390.82,-472.08 7391.7,-479.02"/>
<text text-anchor="middle" x="7299.21" y="-501.13" font-family="Times,serif" font-size="24.00">u:filename</text>
</g>
<!-- o20 -->
<g id="node45" class="node">
<title>o20</title>
<ellipse fill="lightgrey" stroke="black" cx="2302.71" cy="-232.12" rx="33.88" ry="24.08"/>
<text text-anchor="middle" x="2302.71" y="-225.92" font-family="Times,serif" font-size="24.00">S2</text>
</g>
<!-- n211&#45;&gt;o20 -->
<g id="edge50" class="edge">
<title>n211&#45;&gt;o20</title>
<path fill="none" stroke="black" d="M2329.09,-324.06C2319.03,-318.06 2309.62,-310.23 2303.71,-300.17 2297.8,-290.1 2296.36,-277.63 2296.81,-266.18"/>
<polygon fill="black" stroke="black" points="2300.31,-266.32 2297.67,-256.06 2293.33,-265.73 2300.31,-266.32"/>
<text text-anchor="middle" x="2364.71" y="-280.97" font-family="Times,serif" font-size="24.00">foaf:name</text>
</g>
<!-- o21 -->
<g id="node46" class="node">
<title>o21</title>
<ellipse fill="lightgrey" stroke="black" cx="2447.71" cy="-232.12" rx="69.09" ry="24.08"/>
<text text-anchor="middle" x="2447.71" y="-225.92" font-family="Times,serif" font-size="24.00">female</text>
</g>
<!-- n211&#45;&gt;o21 -->
<g id="edge51" class="edge">
<title>n211&#45;&gt;o21</title>
<path fill="none" stroke="black" d="M2401.77,-324.07C2410.41,-317.49 2419.37,-309.33 2425.71,-300.17 2432.71,-290.04 2437.61,-277.52 2440.97,-266.06"/>
<polygon fill="black" stroke="black" points="2444.37,-266.9 2443.55,-256.34 2437.6,-265.11 2444.37,-266.9"/>
<text text-anchor="middle" x="2508.21" y="-280.97" font-family="Times,serif" font-size="24.00">foaf:gender</text>
</g>
<!-- n221 -->
<g id="node23" class="node">
<title>n221</title>
<polygon fill="#a50026" stroke="black" points="2395.21,-574.33 1754.21,-574.33 1754.21,-538.33 2395.21,-538.33 2395.21,-574.33"/>
<text text-anchor="middle" x="2074.71" y="-550.13" font-family="Times,serif" font-size="24.00">file:///home/lindenb/src/hts&#45;rdf/data/S1.grch37.bam</text>
</g>
<!-- n221&#45;&gt;n21 -->
<g id="edge31" class="edge">
<title>n221&#45;&gt;n21</title>
<path fill="none" stroke="black" d="M1923.57,-538.31C1759.4,-519.82 1498.15,-490.4 1330.07,-471.47"/>
<polygon fill="black" stroke="black" points="1330.22,-467.96 1319.89,-470.32 1329.44,-474.92 1330.22,-467.96"/>
<text text-anchor="middle" x="1827.71" y="-501.13" font-family="Times,serif" font-size="24.00">u:reference</text>
</g>
<!-- n221&#45;&gt;n61 -->
<g id="edge30" class="edge">
<title>n221&#45;&gt;n61</title>
<path fill="none" stroke="black" d="M2252.2,-538.31C2445.58,-519.77 2753.65,-490.22 2950.97,-471.3"/>
<polygon fill="black" stroke="black" points="2951.54,-474.76 2961.16,-470.32 2950.87,-467.79 2951.54,-474.76"/>
<text text-anchor="middle" x="2756.71" y="-501.13" font-family="Times,serif" font-size="24.00">u:sample</text>
</g>
<!-- o12 -->
<g id="node37" class="node">
<title>o12</title>
<ellipse fill="lightgrey" stroke="black" cx="2074.71" cy="-452.29" rx="408.92" ry="24.08"/>
<text text-anchor="middle" x="2074.71" y="-446.09" font-family="Times,serif" font-size="24.00">/home/lindenb/src/hts&#45;rdf/data/S1.grch37.bam</text>
</g>
<!-- n221&#45;&gt;o12 -->
<g id="edge29" class="edge">
<title>n221&#45;&gt;o12</title>
<path fill="none" stroke="black" d="M2074.71,-538.02C2074.71,-523.99 2074.71,-503.8 2074.71,-486.65"/>
<polygon fill="black" stroke="black" points="2078.21,-486.44 2074.71,-476.44 2071.21,-486.44 2078.21,-486.44"/>
<text text-anchor="middle" x="2139.21" y="-501.13" font-family="Times,serif" font-size="24.00">u:filename</text>
</g>
<!-- o14 -->
<g id="node39" class="node">
<title>o14</title>
<ellipse fill="lightgrey" stroke="black" cx="7385.71" cy="-122.04" rx="33.88" ry="24.08"/>
<text text-anchor="middle" x="7385.71" y="-115.84" font-family="Times,serif" font-size="24.00">S4</text>
</g>
<!-- n231&#45;&gt;o14 -->
<g id="edge33" class="edge">
<title>n231&#45;&gt;o14</title>
<path fill="none" stroke="black" d="M7385.71,-213.76C7385.71,-198.35 7385.71,-175.42 7385.71,-156.46"/>
<polygon fill="black" stroke="black" points="7389.21,-156.41 7385.71,-146.41 7382.21,-156.41 7389.21,-156.41"/>
<text text-anchor="middle" x="7446.71" y="-170.88" font-family="Times,serif" font-size="24.00">foaf:name</text>
</g>
<!-- n241&#45;&gt;n121 -->
<g id="edge1" class="edge">
<title>n241&#45;&gt;n121</title>
<path fill="none" stroke="black" d="M5419.71,-213.76C5419.71,-196.66 5419.71,-170.29 5419.71,-150.38"/>
<polygon fill="black" stroke="black" points="5423.21,-150.36 5419.71,-140.36 5416.21,-150.36 5423.21,-150.36"/>
<text text-anchor="middle" x="5515.21" y="-170.88" font-family="Times,serif" font-size="24.00">rdfs:subClassOf</text>
</g>
</g>
</svg>
