<?xml version="1.0" encoding="UTF-8" standalone="no"?>
<!DOCTYPE svg PUBLIC "-//W3C//DTD SVG 1.1//EN"
 "http://www.w3.org/Graphics/SVG/1.1/DTD/svg11.dtd">
<!-- Generated by graphviz version 2.43.0 (0)
 -->
<!-- Title: G Pages: 1 -->
<svg width="8060pt" height="582pt"
 viewBox="0.00 0.00 8059.88 582.33" xmlns="http://www.w3.org/2000/svg" xmlns:xlink="http://www.w3.org/1999/xlink">
<g id="graph0" class="graph" transform="scale(1 1) rotate(0) translate(4 578.33)">
<title>G</title>
<polygon fill="white" stroke="transparent" points="-4,4 -4,-578.33 8055.88,-578.33 8055.88,4 -4,4"/>
<!-- n01 -->
<g id="node1" class="node">
<title>n01</title>
<polygon fill="#fdae61" stroke="black" points="1796.17,-574.33 1698.17,-574.33 1698.17,-538.33 1796.17,-538.33 1796.17,-574.33"/>
<text text-anchor="middle" x="1747.17" y="-550.13" font-family="Times,serif" font-size="24.00">Fam01</text>
</g>
<!-- n61 -->
<g id="node7" class="node">
<title>n61</title>
<polygon fill="#d9ef8b" stroke="black" points="1386.17,-470.29 1332.17,-470.29 1332.17,-434.29 1386.17,-434.29 1386.17,-470.29"/>
<text text-anchor="middle" x="1359.17" y="-446.09" font-family="Times,serif" font-size="24.00">S1</text>
</g>
<!-- n01&#45;&gt;n61 -->
<g id="edge37" class="edge">
<title>n01&#45;&gt;n61</title>
<path fill="none" stroke="black" d="M1697.91,-547.8C1676.24,-544.63 1650.47,-541.06 1627.17,-538.33 1583.95,-533.28 1470.98,-540.01 1432.17,-520.33 1418.41,-513.36 1420.28,-505.04 1409.17,-494.33 1403.14,-488.52 1396.39,-482.62 1389.84,-477.17"/>
<polygon fill="black" stroke="black" points="1391.68,-474.15 1381.72,-470.54 1387.26,-479.58 1391.68,-474.15"/>
<text text-anchor="middle" x="1509.67" y="-501.13" font-family="Times,serif" font-size="24.00">foaf:member</text>
</g>
<!-- n71 -->
<g id="node8" class="node">
<title>n71</title>
<polygon fill="#d9ef8b" stroke="black" points="1376.17,-360.21 1322.17,-360.21 1322.17,-324.21 1376.17,-324.21 1376.17,-360.21"/>
<text text-anchor="middle" x="1349.17" y="-336.01" font-family="Times,serif" font-size="24.00">S3</text>
</g>
<!-- n01&#45;&gt;n71 -->
<g id="edge39" class="edge">
<title>n01&#45;&gt;n71</title>
<path fill="none" stroke="black" d="M1744.57,-538.29C1741.42,-524.02 1734.61,-504.4 1720.17,-494.33 1668.29,-458.17 1485.76,-515.58 1436.17,-476.33 1402.63,-449.79 1433.34,-418.84 1408.17,-384.25 1402,-375.78 1393.53,-368.44 1384.93,-362.42"/>
<polygon fill="black" stroke="black" points="1386.65,-359.36 1376.37,-356.83 1382.83,-365.23 1386.65,-359.36"/>
<text text-anchor="middle" x="1513.67" y="-446.09" font-family="Times,serif" font-size="24.00">foaf:member</text>
</g>
<!-- n181 -->
<g id="node19" class="node">
<title>n181</title>
<polygon fill="#d9ef8b" stroke="black" points="2482.17,-470.29 2428.17,-470.29 2428.17,-434.29 2482.17,-434.29 2482.17,-470.29"/>
<text text-anchor="middle" x="2455.17" y="-446.09" font-family="Times,serif" font-size="24.00">S5</text>
</g>
<!-- n01&#45;&gt;n181 -->
<g id="edge40" class="edge">
<title>n01&#45;&gt;n181</title>
<path fill="none" stroke="black" d="M1796.29,-544.28C1871.08,-527.52 2007.24,-497.31 2030.17,-494.33 2115.98,-483.18 2336.7,-502.55 2419.17,-476.33 2420.58,-475.88 2422,-475.36 2423.4,-474.79"/>
<polygon fill="black" stroke="black" points="2425.03,-477.89 2432.43,-470.3 2421.92,-471.61 2425.03,-477.89"/>
<text text-anchor="middle" x="2107.67" y="-501.13" font-family="Times,serif" font-size="24.00">foaf:member</text>
</g>
<!-- n231 -->
<g id="node24" class="node">
<title>n231</title>
<polygon fill="#d9ef8b" stroke="black" points="2592.17,-360.21 2538.17,-360.21 2538.17,-324.21 2592.17,-324.21 2592.17,-360.21"/>
<text text-anchor="middle" x="2565.17" y="-336.01" font-family="Times,serif" font-size="24.00">S2</text>
</g>
<!-- n01&#45;&gt;n231 -->
<g id="edge38" class="edge">
<title>n01&#45;&gt;n231</title>
<path fill="none" stroke="black" d="M1748.22,-538.18C1750.5,-506.96 1757.08,-442.69 1773.17,-428.25 1786.79,-416.02 2411.02,-368.64 2429.17,-366.25 2462.85,-361.81 2500.97,-355.21 2528.27,-350.22"/>
<polygon fill="black" stroke="black" points="2528.97,-353.65 2538.16,-348.39 2527.7,-346.76 2528.97,-353.65"/>
<text text-anchor="middle" x="1850.67" y="-446.09" font-family="Times,serif" font-size="24.00">foaf:member</text>
</g>
<!-- n11 -->
<g id="node2" class="node">
<title>n11</title>
<polygon fill="#ffffbf" stroke="black" points="3206.17,-250.12 2516.17,-250.12 2516.17,-214.12 3206.17,-214.12 3206.17,-250.12"/>
<text text-anchor="middle" x="2861.17" y="-225.92" font-family="Times,serif" font-size="24.00">https://umr1087.univ&#45;nantes.fr/rdf/references/rotavirus</text>
</g>
<!-- n151 -->
<g id="node16" class="node">
<title>n151</title>
<polygon fill="#f46d43" stroke="black" points="3218.67,-140.04 3085.67,-140.04 3085.67,-104.04 3218.67,-104.04 3218.67,-140.04"/>
<text text-anchor="middle" x="3152.17" y="-115.84" font-family="Times,serif" font-size="24.00">Rotavirus</text>
</g>
<!-- n11&#45;&gt;n151 -->
<g id="edge4" class="edge">
<title>n11&#45;&gt;n151</title>
<path fill="none" stroke="black" d="M2994.58,-214.1C3019.38,-208.29 3044.57,-200.51 3067.17,-190.08 3090.05,-179.53 3112.28,-161.64 3128.26,-147"/>
<polygon fill="black" stroke="black" points="3130.69,-149.52 3135.58,-140.12 3125.9,-144.42 3130.69,-149.52"/>
<text text-anchor="middle" x="3153.17" y="-170.88" font-family="Times,serif" font-size="24.00">u:taxon</text>
</g>
<!-- o1 -->
<g id="node28" class="node">
<title>o1</title>
<ellipse fill="lightgrey" stroke="black" cx="2952.17" cy="-122.04" rx="89.19" ry="24.08"/>
<text text-anchor="middle" x="2952.17" y="-115.84" font-family="Times,serif" font-size="24.00">rotavirus</text>
</g>
<!-- n11&#45;&gt;o1 -->
<g id="edge2" class="edge">
<title>n11&#45;&gt;o1</title>
<path fill="none" stroke="black" d="M2875.79,-213.76C2889.48,-197.5 2910.23,-172.86 2926.65,-153.36"/>
<polygon fill="black" stroke="black" points="2929.39,-155.53 2933.16,-145.62 2924.04,-151.02 2929.39,-155.53"/>
<text text-anchor="middle" x="2990.67" y="-170.88" font-family="Times,serif" font-size="24.00">u:genomeId</text>
</g>
<!-- o2 -->
<g id="node29" class="node">
<title>o2</title>
<ellipse fill="lightgrey" stroke="black" cx="2668.17" cy="-122.04" rx="176.55" ry="24.08"/>
<text text-anchor="middle" x="2668.17" y="-115.84" font-family="Times,serif" font-size="24.00">data/rotavirus_rf.fa</text>
</g>
<!-- n11&#45;&gt;o2 -->
<g id="edge3" class="edge">
<title>n11&#45;&gt;o2</title>
<path fill="none" stroke="black" d="M2814.33,-213.93C2797.79,-207.23 2779.31,-199.02 2763.17,-190.08 2743.14,-178.99 2722.2,-164.57 2705.1,-151.94"/>
<polygon fill="black" stroke="black" points="2707.14,-149.09 2697.04,-145.91 2702.95,-154.7 2707.14,-149.09"/>
<text text-anchor="middle" x="2827.67" y="-170.88" font-family="Times,serif" font-size="24.00">u:filename</text>
</g>
<!-- n21 -->
<g id="node3" class="node">
<title>n21</title>
<polygon fill="#ffffbf" stroke="black" points="7216.17,-470.29 6550.17,-470.29 6550.17,-434.29 7216.17,-434.29 7216.17,-470.29"/>
<text text-anchor="middle" x="6883.17" y="-446.09" font-family="Times,serif" font-size="24.00">https://umr1087.univ&#45;nantes.fr/rdf/references/grch37</text>
</g>
<!-- n111 -->
<g id="node12" class="node">
<title>n111</title>
<polygon fill="#f46d43" stroke="black" points="6423.67,-360.21 6232.67,-360.21 6232.67,-324.21 6423.67,-324.21 6423.67,-360.21"/>
<text text-anchor="middle" x="6328.17" y="-336.01" font-family="Times,serif" font-size="24.00">Homo Sapiens</text>
</g>
<!-- n21&#45;&gt;n111 -->
<g id="edge26" class="edge">
<title>n21&#45;&gt;n111</title>
<path fill="none" stroke="black" d="M6795.84,-434.28C6695.29,-414.7 6530.57,-382.62 6425.85,-362.23"/>
<polygon fill="black" stroke="black" points="6426.39,-358.77 6415.91,-360.29 6425.05,-365.64 6426.39,-358.77"/>
<text text-anchor="middle" x="6717.17" y="-391.05" font-family="Times,serif" font-size="24.00">u:taxon</text>
</g>
<!-- o9 -->
<g id="node36" class="node">
<title>o9</title>
<ellipse fill="lightgrey" stroke="black" cx="6827.17" cy="-342.21" rx="72.25" ry="24.08"/>
<text text-anchor="middle" x="6827.17" y="-336.01" font-family="Times,serif" font-size="24.00">grch37</text>
</g>
<!-- n21&#45;&gt;o9 -->
<g id="edge24" class="edge">
<title>n21&#45;&gt;o9</title>
<path fill="none" stroke="black" d="M6874.17,-433.93C6865.99,-418.13 6853.71,-394.42 6843.75,-375.2"/>
<polygon fill="black" stroke="black" points="6846.78,-373.45 6839.07,-366.18 6840.57,-376.67 6846.78,-373.45"/>
<text text-anchor="middle" x="6933.67" y="-391.05" font-family="Times,serif" font-size="24.00">u:genomeId</text>
</g>
<!-- o10 -->
<g id="node37" class="node">
<title>o10</title>
<ellipse fill="lightgrey" stroke="black" cx="7063.17" cy="-342.21" rx="145.83" ry="24.08"/>
<text text-anchor="middle" x="7063.17" y="-336.01" font-family="Times,serif" font-size="24.00">data/hg19.fasta</text>
</g>
<!-- n21&#45;&gt;o10 -->
<g id="edge25" class="edge">
<title>n21&#45;&gt;o10</title>
<path fill="none" stroke="black" d="M6960.79,-434.2C6977.96,-428.3 6995.42,-420.5 7010.17,-410.25 7023.54,-400.96 7035.18,-387.33 7044.12,-374.77"/>
<polygon fill="black" stroke="black" points="7047.14,-376.56 7049.87,-366.32 7041.35,-372.62 7047.14,-376.56"/>
<text text-anchor="middle" x="7100.67" y="-391.05" font-family="Times,serif" font-size="24.00">u:filename</text>
</g>
<!-- n31 -->
<g id="node4" class="node">
<title>n31</title>
<polygon fill="#d73027" stroke="black" points="2420.17,-360.21 1834.17,-360.21 1834.17,-324.21 2420.17,-324.21 2420.17,-360.21"/>
<text text-anchor="middle" x="2127.17" y="-336.01" font-family="Times,serif" font-size="24.00">file:///home/lindenb/src/hts&#45;rdf/data/S4.RF.bam</text>
</g>
<!-- n31&#45;&gt;n11 -->
<g id="edge20" class="edge">
<title>n31&#45;&gt;n11</title>
<path fill="none" stroke="black" d="M2242.67,-324.2C2376.68,-304.47 2596.9,-272.04 2735.21,-251.67"/>
<polygon fill="black" stroke="black" points="2736.06,-255.09 2745.44,-250.17 2735.04,-248.16 2736.06,-255.09"/>
<text text-anchor="middle" x="2653.17" y="-280.97" font-family="Times,serif" font-size="24.00">u:reference</text>
</g>
<!-- n251 -->
<g id="node26" class="node">
<title>n251</title>
<polygon fill="#d9ef8b" stroke="black" points="1738.17,-250.12 1684.17,-250.12 1684.17,-214.12 1738.17,-214.12 1738.17,-250.12"/>
<text text-anchor="middle" x="1711.17" y="-225.92" font-family="Times,serif" font-size="24.00">S4</text>
</g>
<!-- n31&#45;&gt;n251 -->
<g id="edge19" class="edge">
<title>n31&#45;&gt;n251</title>
<path fill="none" stroke="black" d="M2000.14,-324.17C1924.65,-311.29 1828.14,-289.9 1747.17,-256.17 1746.18,-255.75 1745.18,-255.31 1744.18,-254.85"/>
<polygon fill="black" stroke="black" points="1745.81,-251.75 1735.33,-250.18 1742.55,-257.94 1745.81,-251.75"/>
<text text-anchor="middle" x="1934.17" y="-280.97" font-family="Times,serif" font-size="24.00">u:sample</text>
</g>
<!-- o7 -->
<g id="node34" class="node">
<title>o7</title>
<ellipse fill="lightgrey" stroke="black" cx="2127.17" cy="-232.12" rx="370.55" ry="24.08"/>
<text text-anchor="middle" x="2127.17" y="-225.92" font-family="Times,serif" font-size="24.00">/home/lindenb/src/hts&#45;rdf/data/S4.RF.bam</text>
</g>
<!-- n31&#45;&gt;o7 -->
<g id="edge18" class="edge">
<title>n31&#45;&gt;o7</title>
<path fill="none" stroke="black" d="M2127.17,-323.84C2127.17,-308.44 2127.17,-285.5 2127.17,-266.54"/>
<polygon fill="black" stroke="black" points="2130.67,-266.5 2127.17,-256.5 2123.67,-266.5 2130.67,-266.5"/>
<text text-anchor="middle" x="2191.67" y="-280.97" font-family="Times,serif" font-size="24.00">u:filename</text>
</g>
<!-- n41 -->
<g id="node5" class="node">
<title>n41</title>
<polygon fill="#fee08b" stroke="black" points="1219.67,-360.21 988.67,-360.21 988.67,-324.21 1219.67,-324.21 1219.67,-360.21"/>
<text text-anchor="middle" x="1104.17" y="-336.01" font-family="Times,serif" font-size="24.00">Turner Syndrome</text>
</g>
<!-- n51 -->
<g id="node6" class="node">
<title>n51</title>
<polygon fill="#d73027" stroke="black" points="7203.67,-574.33 6562.67,-574.33 6562.67,-538.33 7203.67,-538.33 7203.67,-574.33"/>
<text text-anchor="middle" x="6883.17" y="-550.13" font-family="Times,serif" font-size="24.00">file:///home/lindenb/src/hts&#45;rdf/data/S2.grch37.bam</text>
</g>
<!-- n51&#45;&gt;n21 -->
<g id="edge23" class="edge">
<title>n51&#45;&gt;n21</title>
<path fill="none" stroke="black" d="M6883.17,-538.02C6883.17,-522.24 6883.17,-498.67 6883.17,-480.4"/>
<polygon fill="black" stroke="black" points="6886.67,-480.35 6883.17,-470.35 6879.67,-480.35 6886.67,-480.35"/>
<text text-anchor="middle" x="6954.17" y="-501.13" font-family="Times,serif" font-size="24.00">u:reference</text>
</g>
<!-- n51&#45;&gt;n231 -->
<g id="edge22" class="edge">
<title>n51&#45;&gt;n231</title>
<path fill="none" stroke="black" d="M6562.44,-549.99C6325.96,-544.82 6041.41,-535.51 6018.17,-520.33 5980.03,-495.43 6011.51,-452.85 5973.17,-428.25 5898.45,-380.3 2968.32,-347.51 2602.53,-343.6"/>
<polygon fill="black" stroke="black" points="2602.5,-340.1 2592.46,-343.49 2602.42,-347.1 2602.5,-340.1"/>
<text text-anchor="middle" x="6050.17" y="-446.09" font-family="Times,serif" font-size="24.00">u:sample</text>
</g>
<!-- o8 -->
<g id="node35" class="node">
<title>o8</title>
<ellipse fill="lightgrey" stroke="black" cx="7643.17" cy="-452.29" rx="408.92" ry="24.08"/>
<text text-anchor="middle" x="7643.17" y="-446.09" font-family="Times,serif" font-size="24.00">/home/lindenb/src/hts&#45;rdf/data/S2.grch37.bam</text>
</g>
<!-- n51&#45;&gt;o8 -->
<g id="edge21" class="edge">
<title>n51&#45;&gt;o8</title>
<path fill="none" stroke="black" d="M7009.95,-538.31C7137.49,-521.19 7334.88,-494.68 7475.35,-475.82"/>
<polygon fill="black" stroke="black" points="7475.92,-479.28 7485.36,-474.48 7474.99,-472.34 7475.92,-479.28"/>
<text text-anchor="middle" x="7395.67" y="-501.13" font-family="Times,serif" font-size="24.00">u:filename</text>
</g>
<!-- n61&#45;&gt;n41 -->
<g id="edge13" class="edge">
<title>n61&#45;&gt;n41</title>
<path fill="none" stroke="black" d="M1335.99,-434.19C1331.89,-431.83 1327.53,-429.72 1323.17,-428.25 1277.33,-412.75 1139.47,-445.36 1106.17,-410.25 1096.34,-399.88 1095.47,-384.05 1097.24,-370.37"/>
<polygon fill="black" stroke="black" points="1100.69,-370.92 1098.99,-360.46 1093.8,-369.7 1100.69,-370.92"/>
<text text-anchor="middle" x="1188.17" y="-391.05" font-family="Times,serif" font-size="24.00">u:has&#45;disease</text>
</g>
<!-- n61&#45;&gt;n71 -->
<g id="edge11" class="edge">
<title>n61&#45;&gt;n71</title>
<path fill="none" stroke="black" d="M1333.56,-434.08C1330.12,-432.01 1326.6,-430.01 1323.17,-428.25 1304.01,-418.4 1290.25,-428.09 1278.17,-410.25 1271.69,-400.68 1272.39,-394.26 1278.17,-384.25 1285.73,-371.15 1299.24,-361.86 1312.46,-355.46"/>
<polygon fill="black" stroke="black" points="1314.19,-358.53 1321.94,-351.31 1311.38,-352.12 1314.19,-358.53"/>
<text text-anchor="middle" x="1343.17" y="-391.05" font-family="Times,serif" font-size="24.00">rel:childOf</text>
</g>
<!-- n161 -->
<g id="node17" class="node">
<title>n161</title>
<polygon fill="#fee08b" stroke="black" points="909.67,-140.04 770.67,-140.04 770.67,-104.04 909.67,-104.04 909.67,-140.04"/>
<text text-anchor="middle" x="840.17" y="-115.84" font-family="Times,serif" font-size="24.00">COVID&#45;19</text>
</g>
<!-- n61&#45;&gt;n161 -->
<g id="edge12" class="edge">
<title>n61&#45;&gt;n161</title>
<path fill="none" stroke="black" d="M1336.43,-434.27C1332.21,-431.84 1327.7,-429.68 1323.17,-428.25 1237.72,-401.16 1007.35,-431.14 920.17,-410.25 874.13,-399.22 848.81,-406.04 823.17,-366.25 779.5,-298.49 810.22,-196.94 828.81,-149.38"/>
<polygon fill="black" stroke="black" points="832.06,-150.67 832.56,-140.09 825.57,-148.05 832.06,-150.67"/>
<text text-anchor="middle" x="884.17" y="-280.97" font-family="Times,serif" font-size="24.00">u:has&#45;disease</text>
</g>
<!-- n61&#45;&gt;n231 -->
<g id="edge10" class="edge">
<title>n61&#45;&gt;n231</title>
<path fill="none" stroke="black" d="M1386.3,-434.19C1390.81,-431.9 1395.53,-429.81 1400.17,-428.25 1537.53,-382.17 1578.76,-395.89 1723.17,-384.25 2036.03,-359.03 2116.76,-396.54 2429.17,-366.25 2462.88,-362.98 2500.85,-356.29 2528.09,-350.96"/>
<polygon fill="black" stroke="black" points="2528.85,-354.38 2537.97,-348.99 2527.48,-347.51 2528.85,-354.38"/>
<text text-anchor="middle" x="1788.17" y="-391.05" font-family="Times,serif" font-size="24.00">rel:childOf</text>
</g>
<!-- o4 -->
<g id="node31" class="node">
<title>o4</title>
<ellipse fill="lightgrey" stroke="black" cx="901.17" cy="-342.21" rx="69.09" ry="24.08"/>
<text text-anchor="middle" x="901.17" y="-336.01" font-family="Times,serif" font-size="24.00">female</text>
</g>
<!-- n61&#45;&gt;o4 -->
<g id="edge9" class="edge">
<title>n61&#45;&gt;o4</title>
<path fill="none" stroke="black" d="M1336.43,-434.29C1332.21,-431.86 1327.69,-429.69 1323.17,-428.25 1244.54,-403.16 1025.21,-448.69 952.17,-410.25 937.45,-402.5 925.74,-388.4 917.28,-375.13"/>
<polygon fill="black" stroke="black" points="920.06,-372.96 911.93,-366.16 914.04,-376.54 920.06,-372.96"/>
<text text-anchor="middle" x="1022.67" y="-391.05" font-family="Times,serif" font-size="24.00">foaf:gender</text>
</g>
<!-- n101 -->
<g id="node11" class="node">
<title>n101</title>
<polygon fill="#fee08b" stroke="black" points="1135.17,-250.12 905.17,-250.12 905.17,-214.12 1135.17,-214.12 1135.17,-250.12"/>
<text text-anchor="middle" x="1020.17" y="-225.92" font-family="Times,serif" font-size="24.00">Severe COVID&#45;19</text>
</g>
<!-- n71&#45;&gt;n101 -->
<g id="edge42" class="edge">
<title>n71&#45;&gt;n101</title>
<path fill="none" stroke="black" d="M1322.04,-335.93C1288.52,-329.11 1229.95,-316.17 1181.17,-300.17 1141.54,-287.16 1097.94,-268.74 1066.12,-254.5"/>
<polygon fill="black" stroke="black" points="1067.2,-251.14 1056.64,-250.22 1064.32,-257.53 1067.2,-251.14"/>
<text text-anchor="middle" x="1263.17" y="-280.97" font-family="Times,serif" font-size="24.00">u:has&#45;disease</text>
</g>
<!-- o13 -->
<g id="node40" class="node">
<title>o13</title>
<ellipse fill="lightgrey" stroke="black" cx="1349.17" cy="-232.12" rx="53.07" ry="24.08"/>
<text text-anchor="middle" x="1349.17" y="-225.92" font-family="Times,serif" font-size="24.00">male</text>
</g>
<!-- n71&#45;&gt;o13 -->
<g id="edge41" class="edge">
<title>n71&#45;&gt;o13</title>
<path fill="none" stroke="black" d="M1349.17,-323.84C1349.17,-308.44 1349.17,-285.5 1349.17,-266.54"/>
<polygon fill="black" stroke="black" points="1352.67,-266.5 1349.17,-256.5 1345.67,-266.5 1352.67,-266.5"/>
<text text-anchor="middle" x="1419.67" y="-280.97" font-family="Times,serif" font-size="24.00">foaf:gender</text>
</g>
<!-- n81 -->
<g id="node9" class="node">
<title>n81</title>
<polygon fill="#d73027" stroke="black" points="3475.67,-574.33 2834.67,-574.33 2834.67,-538.33 3475.67,-538.33 3475.67,-574.33"/>
<text text-anchor="middle" x="3155.17" y="-550.13" font-family="Times,serif" font-size="24.00">file:///home/lindenb/src/hts&#45;rdf/data/S3.grch38.bam</text>
</g>
<!-- n81&#45;&gt;n71 -->
<g id="edge6" class="edge">
<title>n81&#45;&gt;n71</title>
<path fill="none" stroke="black" d="M2834.49,-539.13C2767.12,-534.07 2706.42,-527.82 2673.17,-520.33 2642.01,-513.32 2636.81,-503.34 2606.17,-494.33 2567.87,-483.07 2550.42,-499.87 2518.17,-476.33 2498.37,-461.88 2511.85,-441.41 2491.17,-428.25 2443.46,-397.89 1578.12,-354.3 1386.52,-345"/>
<polygon fill="black" stroke="black" points="1386.55,-341.5 1376.39,-344.51 1386.21,-348.49 1386.55,-341.5"/>
<text text-anchor="middle" x="2573.17" y="-446.09" font-family="Times,serif" font-size="24.00">u:sample</text>
</g>
<!-- n171 -->
<g id="node18" class="node">
<title>n171</title>
<polygon fill="#ffffbf" stroke="black" points="3458.17,-470.29 2792.17,-470.29 2792.17,-434.29 3458.17,-434.29 3458.17,-470.29"/>
<text text-anchor="middle" x="3125.17" y="-446.09" font-family="Times,serif" font-size="24.00">https://umr1087.univ&#45;nantes.fr/rdf/references/grch38</text>
</g>
<!-- n81&#45;&gt;n171 -->
<g id="edge7" class="edge">
<title>n81&#45;&gt;n171</title>
<path fill="none" stroke="black" d="M3150.08,-538.02C3145.42,-522.17 3138.45,-498.45 3133.06,-480.14"/>
<polygon fill="black" stroke="black" points="3136.36,-478.95 3130.18,-470.35 3129.65,-480.93 3136.36,-478.95"/>
<text text-anchor="middle" x="3216.17" y="-501.13" font-family="Times,serif" font-size="24.00">u:reference</text>
</g>
<!-- o3 -->
<g id="node30" class="node">
<title>o3</title>
<ellipse fill="lightgrey" stroke="black" cx="3885.17" cy="-452.29" rx="408.92" ry="24.08"/>
<text text-anchor="middle" x="3885.17" y="-446.09" font-family="Times,serif" font-size="24.00">/home/lindenb/src/hts&#45;rdf/data/S3.grch38.bam</text>
</g>
<!-- n81&#45;&gt;o3 -->
<g id="edge5" class="edge">
<title>n81&#45;&gt;o3</title>
<path fill="none" stroke="black" d="M3276.94,-538.31C3399.03,-521.24 3587.76,-494.86 3722.59,-476.02"/>
<polygon fill="black" stroke="black" points="3723.19,-479.47 3732.61,-474.62 3722.22,-472.54 3723.19,-479.47"/>
<text text-anchor="middle" x="3649.67" y="-501.13" font-family="Times,serif" font-size="24.00">u:filename</text>
</g>
<!-- n91 -->
<g id="node10" class="node">
<title>n91</title>
<polygon fill="#d73027" stroke="black" points="1618.67,-574.33 977.67,-574.33 977.67,-538.33 1618.67,-538.33 1618.67,-574.33"/>
<text text-anchor="middle" x="1298.17" y="-550.13" font-family="Times,serif" font-size="24.00">file:///home/lindenb/src/hts&#45;rdf/data/S1.grch38.bam</text>
</g>
<!-- n91&#45;&gt;n61 -->
<g id="edge49" class="edge">
<title>n91&#45;&gt;n61</title>
<path fill="none" stroke="black" d="M1294.43,-538.23C1292.53,-525.39 1291.94,-507.76 1299.17,-494.33 1300.01,-492.77 1311.68,-484.67 1324.5,-476.08"/>
<polygon fill="black" stroke="black" points="1326.61,-478.87 1332.99,-470.42 1322.73,-473.05 1326.61,-478.87"/>
<text text-anchor="middle" x="1354.17" y="-501.13" font-family="Times,serif" font-size="24.00">u:sample</text>
</g>
<!-- n91&#45;&gt;n171 -->
<g id="edge50" class="edge">
<title>n91&#45;&gt;n171</title>
<path fill="none" stroke="black" d="M1618.76,-541C1642.58,-540.06 1666.25,-539.16 1689.17,-538.33 1724.33,-537.07 2291.03,-536.71 2322.17,-520.33 2334.84,-513.67 2328.54,-501.07 2341.17,-494.33 2384.04,-471.44 2729.64,-478.94 2778.17,-476.33 2808.09,-474.72 2839.45,-472.87 2870.57,-470.93"/>
<polygon fill="black" stroke="black" points="2870.9,-474.42 2880.66,-470.3 2870.46,-467.43 2870.9,-474.42"/>
<text text-anchor="middle" x="2412.17" y="-501.13" font-family="Times,serif" font-size="24.00">u:reference</text>
</g>
<!-- o15 -->
<g id="node42" class="node">
<title>o15</title>
<ellipse fill="lightgrey" stroke="black" cx="905.17" cy="-452.29" rx="408.92" ry="24.08"/>
<text text-anchor="middle" x="905.17" y="-446.09" font-family="Times,serif" font-size="24.00">/home/lindenb/src/hts&#45;rdf/data/S1.grch38.bam</text>
</g>
<!-- n91&#45;&gt;o15 -->
<g id="edge48" class="edge">
<title>n91&#45;&gt;o15</title>
<path fill="none" stroke="black" d="M1231.25,-538.32C1208.96,-532.63 1183.99,-526.23 1161.17,-520.33 1108.01,-506.58 1048.69,-491.06 1000.55,-478.41"/>
<polygon fill="black" stroke="black" points="1001.32,-475 990.76,-475.84 999.54,-481.77 1001.32,-475"/>
<text text-anchor="middle" x="1225.67" y="-501.13" font-family="Times,serif" font-size="24.00">u:filename</text>
</g>
<!-- n101&#45;&gt;n161 -->
<g id="edge57" class="edge">
<title>n101&#45;&gt;n161</title>
<path fill="none" stroke="black" d="M991.65,-214C960.71,-195.42 911.2,-165.69 877.26,-145.31"/>
<polygon fill="black" stroke="black" points="878.93,-142.23 868.56,-140.09 875.33,-148.24 878.93,-142.23"/>
<text text-anchor="middle" x="1047.67" y="-170.88" font-family="Times,serif" font-size="24.00">rdfs:subClassOf</text>
</g>
<!-- n261 -->
<g id="node27" class="node">
<title>n261</title>
<polygon fill="#f46d43" stroke="black" points="4206.67,-250.12 4117.67,-250.12 4117.67,-214.12 4206.67,-214.12 4206.67,-250.12"/>
<text text-anchor="middle" x="4162.17" y="-225.92" font-family="Times,serif" font-size="24.00">Homo</text>
</g>
<!-- n111&#45;&gt;n261 -->
<g id="edge43" class="edge">
<title>n111&#45;&gt;n261</title>
<path fill="none" stroke="black" d="M6258.05,-324.18C6246.14,-321.81 6233.84,-319.66 6222.17,-318.17 5817.77,-266.26 4501.81,-239.39 4216.9,-234.1"/>
<polygon fill="black" stroke="black" points="4216.87,-230.6 4206.81,-233.92 4216.74,-237.6 4216.87,-230.6"/>
<text text-anchor="middle" x="6108.67" y="-280.97" font-family="Times,serif" font-size="24.00">rdfs:subClassOf</text>
</g>
<!-- n121 -->
<g id="node13" class="node">
<title>n121</title>
<polygon fill="#f46d43" stroke="black" points="3779.67,-140.04 3630.67,-140.04 3630.67,-104.04 3779.67,-104.04 3779.67,-140.04"/>
<text text-anchor="middle" x="3705.17" y="-115.84" font-family="Times,serif" font-size="24.00">Hominidae</text>
</g>
<!-- n131 -->
<g id="node14" class="node">
<title>n131</title>
<polygon fill="#f46d43" stroke="black" points="3486.67,-36 3397.67,-36 3397.67,0 3486.67,0 3486.67,-36"/>
<text text-anchor="middle" x="3442.17" y="-11.8" font-family="Times,serif" font-size="24.00">ROOT</text>
</g>
<!-- n121&#45;&gt;n131 -->
<g id="edge17" class="edge">
<title>n121&#45;&gt;n131</title>
<path fill="none" stroke="black" d="M3661.15,-103.96C3615.64,-86.3 3544.53,-58.72 3495.77,-39.8"/>
<polygon fill="black" stroke="black" points="3496.92,-36.49 3486.33,-36.14 3494.39,-43.02 3496.92,-36.49"/>
<text text-anchor="middle" x="3692.67" y="-60.8" font-family="Times,serif" font-size="24.00">rdfs:subClassOf</text>
</g>
<!-- n141 -->
<g id="node15" class="node">
<title>n141</title>
<polygon fill="#a50026" stroke="black" points="939.67,-574.33 642.67,-574.33 642.67,-538.33 939.67,-538.33 939.67,-574.33"/>
<text text-anchor="middle" x="791.17" y="-550.13" font-family="Times,serif" font-size="24.00">file://data/variants2.vcf</text>
</g>
<!-- n141&#45;&gt;n21 -->
<g id="edge53" class="edge">
<title>n141&#45;&gt;n21</title>
<path fill="none" stroke="black" d="M939.83,-540.13C949.41,-539.44 958.92,-538.83 968.17,-538.33 1149.92,-528.62 2426.41,-548.84 2606.17,-520.33 2644.35,-514.28 2650.97,-500.27 2689.17,-494.33 2794.9,-477.91 6434.24,-480.18 6541.17,-476.33 6576.5,-475.06 6613.86,-473.14 6650.39,-470.94"/>
<polygon fill="black" stroke="black" points="6650.91,-474.41 6660.67,-470.31 6650.48,-467.42 6650.91,-474.41"/>
<text text-anchor="middle" x="2760.17" y="-501.13" font-family="Times,serif" font-size="24.00">u:reference</text>
</g>
<!-- n141&#45;&gt;n61 -->
<g id="edge54" class="edge">
<title>n141&#45;&gt;n61</title>
<path fill="none" stroke="black" d="M825.64,-538.32C857,-523.74 905.01,-503.67 949.17,-494.33 1030.58,-477.13 1243.9,-501.61 1323.17,-476.33 1324.58,-475.88 1326,-475.36 1327.4,-474.78"/>
<polygon fill="black" stroke="black" points="1329.03,-477.88 1336.43,-470.3 1325.92,-471.61 1329.03,-477.88"/>
<text text-anchor="middle" x="1004.17" y="-501.13" font-family="Times,serif" font-size="24.00">u:sample</text>
</g>
<!-- n141&#45;&gt;n71 -->
<g id="edge56" class="edge">
<title>n141&#45;&gt;n71</title>
<path fill="none" stroke="black" d="M642.63,-552.39C491.06,-544.55 289.59,-517.7 377.17,-428.25 410.33,-394.38 1184.87,-424.2 1230.17,-410.25 1250.43,-404.01 1251.85,-394.93 1270.17,-384.25 1283.95,-376.22 1299.45,-367.99 1313.06,-361.04"/>
<polygon fill="black" stroke="black" points="1314.79,-364.08 1322.13,-356.44 1311.62,-357.84 1314.79,-364.08"/>
<text text-anchor="middle" x="432.17" y="-446.09" font-family="Times,serif" font-size="24.00">u:sample</text>
</g>
<!-- n141&#45;&gt;n231 -->
<g id="edge55" class="edge">
<title>n141&#45;&gt;n231</title>
<path fill="none" stroke="black" d="M939.86,-540.7C949.44,-539.87 958.94,-539.07 968.17,-538.33 1030.99,-533.32 1191.47,-540.5 1251.17,-520.33 1270.91,-513.67 1270.42,-500.96 1290.17,-494.33 1353.69,-473.01 1529.66,-502.91 1591.17,-476.33 1619.77,-463.98 1613.73,-440.97 1642.17,-428.25 1728.09,-389.83 1761.84,-432.99 1853.17,-410.25 1881.77,-403.13 1885.4,-390.65 1914.17,-384.25 2025.95,-359.38 2315.24,-377.84 2429.17,-366.25 2462.87,-362.82 2500.84,-356.15 2528.08,-350.86"/>
<polygon fill="black" stroke="black" points="2528.83,-354.28 2537.96,-348.91 2527.48,-347.41 2528.83,-354.28"/>
<text text-anchor="middle" x="1697.17" y="-446.09" font-family="Times,serif" font-size="24.00">u:sample</text>
</g>
<!-- o17 -->
<g id="node44" class="node">
<title>o17</title>
<ellipse fill="lightgrey" stroke="black" cx="166.17" cy="-452.29" rx="166.34" ry="24.08"/>
<text text-anchor="middle" x="166.17" y="-446.09" font-family="Times,serif" font-size="24.00">data/variants2.vcf</text>
</g>
<!-- n141&#45;&gt;o17 -->
<g id="edge52" class="edge">
<title>n141&#45;&gt;o17</title>
<path fill="none" stroke="black" d="M642.34,-552.01C487.25,-547.61 261.72,-538.24 225.17,-520.33 209.14,-512.48 195.6,-498.14 185.55,-484.73"/>
<polygon fill="black" stroke="black" points="188.39,-482.69 179.75,-476.56 182.69,-486.74 188.39,-482.69"/>
<text text-anchor="middle" x="289.67" y="-501.13" font-family="Times,serif" font-size="24.00">u:filename</text>
</g>
<!-- n151&#45;&gt;n131 -->
<g id="edge27" class="edge">
<title>n151&#45;&gt;n131</title>
<path fill="none" stroke="black" d="M3198.97,-104.02C3236.75,-90.34 3291.31,-70.71 3339.17,-54 3354.97,-48.48 3372.17,-42.59 3387.91,-37.25"/>
<polygon fill="black" stroke="black" points="3389.15,-40.52 3397.5,-34 3386.91,-33.89 3389.15,-40.52"/>
<text text-anchor="middle" x="3434.67" y="-60.8" font-family="Times,serif" font-size="24.00">rdfs:subClassOf</text>
</g>
<!-- n191 -->
<g id="node20" class="node">
<title>n191</title>
<polygon fill="#fee08b" stroke="black" points="1034.17,-36 646.17,-36 646.17,0 1034.17,0 1034.17,-36"/>
<text text-anchor="middle" x="840.17" y="-11.8" font-family="Times,serif" font-size="24.00">Coronavirus infectious disease</text>
</g>
<!-- n161&#45;&gt;n191 -->
<g id="edge8" class="edge">
<title>n161&#45;&gt;n191</title>
<path fill="none" stroke="black" d="M840.17,-103.73C840.17,-87.95 840.17,-64.38 840.17,-46.11"/>
<polygon fill="black" stroke="black" points="843.67,-46.05 840.17,-36.05 836.67,-46.05 843.67,-46.05"/>
<text text-anchor="middle" x="935.67" y="-60.8" font-family="Times,serif" font-size="24.00">rdfs:subClassOf</text>
</g>
<!-- n171&#45;&gt;n111 -->
<g id="edge16" class="edge">
<title>n171&#45;&gt;n111</title>
<path fill="none" stroke="black" d="M3349.05,-434.29C3388.39,-431.85 3428.96,-429.68 3467.17,-428.25 3985.04,-408.82 5281.74,-439.09 5799.17,-410.25 5987.89,-399.73 6035.54,-396.15 6222.17,-366.25 6229.54,-365.07 6237.17,-363.7 6244.8,-362.23"/>
<polygon fill="black" stroke="black" points="6245.68,-365.63 6254.81,-360.25 6244.32,-358.76 6245.68,-365.63"/>
<text text-anchor="middle" x="6145.17" y="-391.05" font-family="Times,serif" font-size="24.00">u:taxon</text>
</g>
<!-- o5 -->
<g id="node32" class="node">
<title>o5</title>
<ellipse fill="lightgrey" stroke="black" cx="5831.17" cy="-342.21" rx="72.25" ry="24.08"/>
<text text-anchor="middle" x="5831.17" y="-336.01" font-family="Times,serif" font-size="24.00">grch38</text>
</g>
<!-- n171&#45;&gt;o5 -->
<g id="edge14" class="edge">
<title>n171&#45;&gt;o5</title>
<path fill="none" stroke="black" d="M3363.37,-434.28C3398.18,-432.08 3433.59,-429.98 3467.17,-428.25 4360.86,-382.08 5445.88,-352.9 5749.05,-345.23"/>
<polygon fill="black" stroke="black" points="5749.17,-348.73 5759.08,-344.98 5749,-341.73 5749.17,-348.73"/>
<text text-anchor="middle" x="4512.67" y="-391.05" font-family="Times,serif" font-size="24.00">u:genomeId</text>
</g>
<!-- o6 -->
<g id="node33" class="node">
<title>o6</title>
<ellipse fill="lightgrey" stroke="black" cx="6067.17" cy="-342.21" rx="145.83" ry="24.08"/>
<text text-anchor="middle" x="6067.17" y="-336.01" font-family="Times,serif" font-size="24.00">data/hg38.fasta</text>
</g>
<!-- n171&#45;&gt;o6 -->
<g id="edge15" class="edge">
<title>n171&#45;&gt;o6</title>
<path fill="none" stroke="black" d="M3353.66,-434.27C3391.55,-431.91 3430.45,-429.78 3467.17,-428.25 4553.24,-382.98 4829.59,-464.39 5912.17,-366.25 5926.84,-364.92 5942.24,-363.12 5957.4,-361.11"/>
<polygon fill="black" stroke="black" points="5957.88,-364.58 5967.32,-359.77 5956.94,-357.64 5957.88,-364.58"/>
<text text-anchor="middle" x="5730.67" y="-391.05" font-family="Times,serif" font-size="24.00">u:filename</text>
</g>
<!-- n201 -->
<g id="node21" class="node">
<title>n201</title>
<polygon fill="#a50026" stroke="black" points="2499.67,-574.33 2202.67,-574.33 2202.67,-538.33 2499.67,-538.33 2499.67,-574.33"/>
<text text-anchor="middle" x="2351.17" y="-550.13" font-family="Times,serif" font-size="24.00">file://data/variants1.vcf</text>
</g>
<!-- n201&#45;&gt;n61 -->
<g id="edge33" class="edge">
<title>n201&#45;&gt;n61</title>
<path fill="none" stroke="black" d="M2202.39,-552.86C2030.97,-549.11 1760.09,-540.21 1660.17,-520.33 1626.39,-513.61 1620.79,-501.82 1587.17,-494.33 1505.67,-476.19 1479.84,-501.33 1400.17,-476.33 1398.51,-475.81 1396.84,-475.22 1395.18,-474.57"/>
<polygon fill="black" stroke="black" points="1396.35,-471.26 1385.8,-470.32 1393.47,-477.63 1396.35,-471.26"/>
<text text-anchor="middle" x="1715.17" y="-501.13" font-family="Times,serif" font-size="24.00">u:sample</text>
</g>
<!-- n201&#45;&gt;n71 -->
<g id="edge35" class="edge">
<title>n201&#45;&gt;n71</title>
<path fill="none" stroke="black" d="M2267.44,-538.31C2241.07,-532.78 2211.86,-526.48 2185.17,-520.33 2138.74,-509.64 2127.91,-503.6 2081.17,-494.33 2027.41,-483.67 2005.25,-506.02 1959.17,-476.33 1937.8,-462.56 1949.29,-442.41 1928.17,-428.25 1891.76,-403.83 1870.34,-429.95 1831.17,-410.25 1816,-402.62 1818.68,-391.16 1803.17,-384.25 1728.87,-351.13 1481.13,-344.74 1386.42,-343.5"/>
<polygon fill="black" stroke="black" points="1386.21,-340 1376.17,-343.38 1386.13,-347 1386.21,-340"/>
<text text-anchor="middle" x="2014.17" y="-446.09" font-family="Times,serif" font-size="24.00">u:sample</text>
</g>
<!-- n201&#45;&gt;n171 -->
<g id="edge32" class="edge">
<title>n201&#45;&gt;n171</title>
<path fill="none" stroke="black" d="M2499.74,-549.7C2675.56,-542.61 2947.29,-530.19 2968.17,-520.33 2982.39,-513.62 2978.87,-502.72 2992.17,-494.33 3005.63,-485.85 3020.96,-479.02 3036.31,-473.54"/>
<polygon fill="black" stroke="black" points="3037.51,-476.83 3045.86,-470.31 3035.27,-470.2 3037.51,-476.83"/>
<text text-anchor="middle" x="3063.17" y="-501.13" font-family="Times,serif" font-size="24.00">u:reference</text>
</g>
<!-- n201&#45;&gt;n181 -->
<g id="edge36" class="edge">
<title>n201&#45;&gt;n181</title>
<path fill="none" stroke="black" d="M2450.93,-538.32C2467.76,-533.47 2481.61,-527.51 2487.17,-520.33 2496.99,-507.67 2489.74,-491.51 2479.68,-478.23"/>
<polygon fill="black" stroke="black" points="2482.26,-475.86 2473.18,-470.39 2476.87,-480.32 2482.26,-475.86"/>
<text text-anchor="middle" x="2547.17" y="-501.13" font-family="Times,serif" font-size="24.00">u:sample</text>
</g>
<!-- n201&#45;&gt;n231 -->
<g id="edge34" class="edge">
<title>n201&#45;&gt;n231</title>
<path fill="none" stroke="black" d="M2499.79,-545.88C2545.01,-540.67 2587.66,-532.64 2606.17,-520.33 2641.58,-496.79 2646.1,-468.43 2632.17,-428.25 2624.08,-404.9 2606.62,-383.1 2591.56,-367.42"/>
<polygon fill="black" stroke="black" points="2593.94,-364.85 2584.41,-360.23 2588.98,-369.79 2593.94,-364.85"/>
<text text-anchor="middle" x="2695.17" y="-446.09" font-family="Times,serif" font-size="24.00">u:sample</text>
</g>
<!-- o12 -->
<g id="node39" class="node">
<title>o12</title>
<ellipse fill="lightgrey" stroke="black" cx="2244.17" cy="-452.29" rx="166.34" ry="24.08"/>
<text text-anchor="middle" x="2244.17" y="-446.09" font-family="Times,serif" font-size="24.00">data/variants1.vcf</text>
</g>
<!-- n201&#45;&gt;o12 -->
<g id="edge31" class="edge">
<title>n201&#45;&gt;o12</title>
<path fill="none" stroke="black" d="M2229.61,-538.27C2212.69,-533.57 2199.06,-527.67 2193.17,-520.33 2183.47,-508.24 2190.54,-494.67 2202.17,-482.92"/>
<polygon fill="black" stroke="black" points="2204.86,-485.19 2209.88,-475.86 2200.14,-480.03 2204.86,-485.19"/>
<text text-anchor="middle" x="2257.67" y="-501.13" font-family="Times,serif" font-size="24.00">u:filename</text>
</g>
<!-- n211 -->
<g id="node22" class="node">
<title>n211</title>
<polygon fill="#f46d43" stroke="black" points="6532.17,-470.29 6128.17,-470.29 6128.17,-434.29 6532.17,-434.29 6532.17,-470.29"/>
<text text-anchor="middle" x="6330.17" y="-446.09" font-family="Times,serif" font-size="24.00">Homo sapiens neanderthalensis</text>
</g>
<!-- n211&#45;&gt;n111 -->
<g id="edge44" class="edge">
<title>n211&#45;&gt;n111</title>
<path fill="none" stroke="black" d="M6329.85,-433.93C6329.53,-416.83 6329.04,-390.46 6328.68,-370.55"/>
<polygon fill="black" stroke="black" points="6332.18,-370.46 6328.49,-360.53 6325.18,-370.59 6332.18,-370.46"/>
<text text-anchor="middle" x="6424.67" y="-391.05" font-family="Times,serif" font-size="24.00">rdfs:subClassOf</text>
</g>
<!-- n221 -->
<g id="node23" class="node">
<title>n221</title>
<polygon fill="#d73027" stroke="black" points="4261.67,-574.33 3620.67,-574.33 3620.67,-538.33 4261.67,-538.33 4261.67,-574.33"/>
<text text-anchor="middle" x="3941.17" y="-550.13" font-family="Times,serif" font-size="24.00">file:///home/lindenb/src/hts&#45;rdf/data/S5.grch38.bam</text>
</g>
<!-- n221&#45;&gt;n171 -->
<g id="edge47" class="edge">
<title>n221&#45;&gt;n171</title>
<path fill="none" stroke="black" d="M3890,-538.22C3845.21,-524 3778.12,-504.5 3718.17,-494.33 3713.79,-493.59 3542.49,-481.77 3385.14,-471"/>
<polygon fill="black" stroke="black" points="3385.01,-467.49 3374.79,-470.29 3384.53,-474.47 3385.01,-467.49"/>
<text text-anchor="middle" x="3899.17" y="-501.13" font-family="Times,serif" font-size="24.00">u:reference</text>
</g>
<!-- n221&#45;&gt;n181 -->
<g id="edge46" class="edge">
<title>n221&#45;&gt;n181</title>
<path fill="none" stroke="black" d="M3620.65,-543.06C3574.84,-541.41 3528.31,-539.78 3484.17,-538.33 3449.17,-537.18 2885.16,-536.63 2854.17,-520.33 2841.5,-513.67 2847.75,-501.15 2835.17,-494.33 2768.84,-458.41 2568.62,-497.36 2496.17,-476.33 2494.5,-475.85 2492.82,-475.28 2491.15,-474.66"/>
<polygon fill="black" stroke="black" points="2492.31,-471.34 2481.74,-470.5 2489.48,-477.74 2492.31,-471.34"/>
<text text-anchor="middle" x="2909.17" y="-501.13" font-family="Times,serif" font-size="24.00">u:sample</text>
</g>
<!-- o14 -->
<g id="node41" class="node">
<title>o14</title>
<ellipse fill="lightgrey" stroke="black" cx="4720.17" cy="-452.29" rx="408.92" ry="24.08"/>
<text text-anchor="middle" x="4720.17" y="-446.09" font-family="Times,serif" font-size="24.00">/home/lindenb/src/hts&#45;rdf/data/S5.grch38.bam</text>
</g>
<!-- n221&#45;&gt;o14 -->
<g id="edge45" class="edge">
<title>n221&#45;&gt;o14</title>
<path fill="none" stroke="black" d="M4071.12,-538.31C4201.96,-521.17 4404.5,-494.64 4548.5,-475.78"/>
<polygon fill="black" stroke="black" points="4549.31,-479.2 4558.77,-474.43 4548.4,-472.26 4549.31,-479.2"/>
<text text-anchor="middle" x="4464.67" y="-501.13" font-family="Times,serif" font-size="24.00">u:filename</text>
</g>
<!-- o16 -->
<g id="node43" class="node">
<title>o16</title>
<ellipse fill="lightgrey" stroke="black" cx="3293.17" cy="-232.12" rx="69.09" ry="24.08"/>
<text text-anchor="middle" x="3293.17" y="-225.92" font-family="Times,serif" font-size="24.00">female</text>
</g>
<!-- n231&#45;&gt;o16 -->
<g id="edge51" class="edge">
<title>n231&#45;&gt;o16</title>
<path fill="none" stroke="black" d="M2592.36,-339.19C2682.09,-332.21 2976.62,-306.68 3215.17,-256.17 3221.24,-254.88 3227.53,-253.36 3233.78,-251.71"/>
<polygon fill="black" stroke="black" points="3234.81,-255.06 3243.54,-249.05 3232.97,-248.31 3234.81,-255.06"/>
<text text-anchor="middle" x="3180.67" y="-280.97" font-family="Times,serif" font-size="24.00">foaf:gender</text>
</g>
<!-- n241 -->
<g id="node25" class="node">
<title>n241</title>
<polygon fill="#d73027" stroke="black" points="5875.67,-574.33 5234.67,-574.33 5234.67,-538.33 5875.67,-538.33 5875.67,-574.33"/>
<text text-anchor="middle" x="5555.17" y="-550.13" font-family="Times,serif" font-size="24.00">file:///home/lindenb/src/hts&#45;rdf/data/S1.grch37.bam</text>
</g>
<!-- n241&#45;&gt;n21 -->
<g id="edge30" class="edge">
<title>n241&#45;&gt;n21</title>
<path fill="none" stroke="black" d="M5776.7,-538.31C6018.99,-519.69 6405.53,-489.99 6651.69,-471.08"/>
<polygon fill="black" stroke="black" points="6652.14,-474.55 6661.84,-470.3 6651.6,-467.57 6652.14,-474.55"/>
<text text-anchor="middle" x="6408.17" y="-501.13" font-family="Times,serif" font-size="24.00">u:reference</text>
</g>
<!-- n241&#45;&gt;n61 -->
<g id="edge29" class="edge">
<title>n241&#45;&gt;n61</title>
<path fill="none" stroke="black" d="M5234.61,-550.56C4974.87,-546.82 4599.43,-541.7 4271.17,-538.33 4236.78,-537.98 1826.76,-533.92 1795.17,-520.33 1780.44,-514 1784.76,-500.97 1770.17,-494.33 1695.24,-460.26 1479.28,-499.11 1400.17,-476.33 1398.29,-475.79 1396.4,-475.15 1394.52,-474.43"/>
<polygon fill="black" stroke="black" points="1395.85,-471.19 1385.29,-470.29 1392.98,-477.58 1395.85,-471.19"/>
<text text-anchor="middle" x="1850.17" y="-501.13" font-family="Times,serif" font-size="24.00">u:sample</text>
</g>
<!-- o11 -->
<g id="node38" class="node">
<title>o11</title>
<ellipse fill="lightgrey" stroke="black" cx="5555.17" cy="-452.29" rx="408.92" ry="24.08"/>
<text text-anchor="middle" x="5555.17" y="-446.09" font-family="Times,serif" font-size="24.00">/home/lindenb/src/hts&#45;rdf/data/S1.grch37.bam</text>
</g>
<!-- n241&#45;&gt;o11 -->
<g id="edge28" class="edge">
<title>n241&#45;&gt;o11</title>
<path fill="none" stroke="black" d="M5555.17,-538.02C5555.17,-523.99 5555.17,-503.8 5555.17,-486.65"/>
<polygon fill="black" stroke="black" points="5558.67,-486.44 5555.17,-476.44 5551.67,-486.44 5558.67,-486.44"/>
<text text-anchor="middle" x="5619.67" y="-501.13" font-family="Times,serif" font-size="24.00">u:filename</text>
</g>
<!-- n261&#45;&gt;n121 -->
<g id="edge1" class="edge">
<title>n261&#45;&gt;n121</title>
<path fill="none" stroke="black" d="M4117.52,-220.56C4040.98,-202.46 3883.64,-165.25 3786.98,-142.39"/>
<polygon fill="black" stroke="black" points="3787.78,-138.98 3777.24,-140.09 3786.17,-145.79 3787.78,-138.98"/>
<text text-anchor="middle" x="4082.67" y="-170.88" font-family="Times,serif" font-size="24.00">rdfs:subClassOf</text>
</g>
</g>
</svg>
