<?xml version="1.0" encoding="UTF-8" standalone="no"?>
<!DOCTYPE svg PUBLIC "-//W3C//DTD SVG 1.1//EN"
 "http://www.w3.org/Graphics/SVG/1.1/DTD/svg11.dtd">
<!-- Generated by graphviz version 2.43.0 (0)
 -->
<!-- Title: G Pages: 1 -->
<svg width="567pt" height="240pt"
 viewBox="0.00 0.00 566.50 240.00" xmlns="http://www.w3.org/2000/svg" xmlns:xlink="http://www.w3.org/1999/xlink">
<g id="graph0" class="graph" transform="scale(1 1) rotate(0) translate(4 236)">
<title>G</title>
<polygon fill="white" stroke="transparent" points="-4,4 -4,-236 562.5,-236 562.5,4 -4,4"/>
<!-- n01 -->
<g id="node1" class="node">
<title>n01</title>
<polygon fill="#a50026" stroke="black" points="263.5,-134 124.5,-134 124.5,-98 263.5,-98 263.5,-134"/>
<text text-anchor="middle" x="194" y="-109.8" font-family="Times,serif" font-size="24.00">COVID&#45;19</text>
</g>
<!-- n21 -->
<g id="node3" class="node">
<title>n21</title>
<polygon fill="#a50026" stroke="black" points="388,-36 0,-36 0,0 388,0 388,-36"/>
<text text-anchor="middle" x="194" y="-11.8" font-family="Times,serif" font-size="24.00">Coronavirus infectious disease</text>
</g>
<!-- n01&#45;&gt;n21 -->
<g id="edge1" class="edge">
<title>n01&#45;&gt;n21</title>
<path fill="none" stroke="black" d="M194,-97.84C194,-83.5 194,-62.81 194,-46.22"/>
<polygon fill="black" stroke="black" points="197.5,-46.01 194,-36.01 190.5,-46.01 197.5,-46.01"/>
<text text-anchor="middle" x="289.5" y="-60.8" font-family="Times,serif" font-size="24.00">rdfs:subClassOf</text>
</g>
<!-- n11 -->
<g id="node2" class="node">
<title>n11</title>
<polygon fill="#a50026" stroke="black" points="558.5,-232 327.5,-232 327.5,-196 558.5,-196 558.5,-232"/>
<text text-anchor="middle" x="443" y="-207.8" font-family="Times,serif" font-size="24.00">Turner Syndrome</text>
</g>
<!-- n31 -->
<g id="node4" class="node">
<title>n31</title>
<polygon fill="#a50026" stroke="black" points="309,-232 79,-232 79,-196 309,-196 309,-232"/>
<text text-anchor="middle" x="194" y="-207.8" font-family="Times,serif" font-size="24.00">Severe COVID&#45;19</text>
</g>
<!-- n31&#45;&gt;n01 -->
<g id="edge2" class="edge">
<title>n31&#45;&gt;n01</title>
<path fill="none" stroke="black" d="M194,-195.84C194,-181.5 194,-160.81 194,-144.22"/>
<polygon fill="black" stroke="black" points="197.5,-144.01 194,-134.01 190.5,-144.01 197.5,-144.01"/>
<text text-anchor="middle" x="289.5" y="-158.8" font-family="Times,serif" font-size="24.00">rdfs:subClassOf</text>
</g>
</g>
</svg>
