<?xml version="1.0" encoding="UTF-8" standalone="no"?>
<!DOCTYPE svg PUBLIC "-//W3C//DTD SVG 1.1//EN"
 "http://www.w3.org/Graphics/SVG/1.1/DTD/svg11.dtd">
<!-- Generated by graphviz version 2.43.0 (0)
 -->
<!-- Title: G Pages: 1 -->
<svg width="607pt" height="436pt"
 viewBox="0.00 0.00 607.00 436.00" xmlns="http://www.w3.org/2000/svg" xmlns:xlink="http://www.w3.org/1999/xlink">
<g id="graph0" class="graph" transform="scale(1 1) rotate(0) translate(4 432)">
<title>G</title>
<polygon fill="white" stroke="transparent" points="-4,4 -4,-432 603,-432 603,4 -4,4"/>
<!-- n01 -->
<g id="node1" class="node">
<title>n01</title>
<polygon fill="#a50026" stroke="black" points="404,-428 0,-428 0,-392 404,-392 404,-428"/>
<text text-anchor="middle" x="202" y="-403.8" font-family="Times,serif" font-size="24.00">Homo sapiens neanderthalensis</text>
</g>
<!-- n51 -->
<g id="node6" class="node">
<title>n51</title>
<polygon fill="#a50026" stroke="black" points="297.5,-330 106.5,-330 106.5,-294 297.5,-294 297.5,-330"/>
<text text-anchor="middle" x="202" y="-305.8" font-family="Times,serif" font-size="24.00">Homo Sapiens</text>
</g>
<!-- n01&#45;&gt;n51 -->
<g id="edge2" class="edge">
<title>n01&#45;&gt;n51</title>
<path fill="none" stroke="black" d="M202,-391.84C202,-377.5 202,-356.81 202,-340.22"/>
<polygon fill="black" stroke="black" points="205.5,-340.01 202,-330.01 198.5,-340.01 205.5,-340.01"/>
<text text-anchor="middle" x="297.5" y="-354.8" font-family="Times,serif" font-size="24.00">rdfs:subClassOf</text>
</g>
<!-- n11 -->
<g id="node2" class="node">
<title>n11</title>
<polygon fill="#a50026" stroke="black" points="276.5,-134 127.5,-134 127.5,-98 276.5,-98 276.5,-134"/>
<text text-anchor="middle" x="202" y="-109.8" font-family="Times,serif" font-size="24.00">Hominidae</text>
</g>
<!-- n21 -->
<g id="node3" class="node">
<title>n21</title>
<polygon fill="#a50026" stroke="black" points="353.5,-36 264.5,-36 264.5,0 353.5,0 353.5,-36"/>
<text text-anchor="middle" x="309" y="-11.8" font-family="Times,serif" font-size="24.00">ROOT</text>
</g>
<!-- n11&#45;&gt;n21 -->
<g id="edge3" class="edge">
<title>n11&#45;&gt;n21</title>
<path fill="none" stroke="black" d="M197.32,-97.79C194.8,-84.55 193.84,-66.46 203,-54 215.03,-37.65 234.96,-28.82 254.31,-24.09"/>
<polygon fill="black" stroke="black" points="255.27,-27.47 264.33,-21.98 253.82,-20.62 255.27,-27.47"/>
<text text-anchor="middle" x="298.5" y="-60.8" font-family="Times,serif" font-size="24.00">rdfs:subClassOf</text>
</g>
<!-- n31 -->
<g id="node4" class="node">
<title>n31</title>
<polygon fill="#a50026" stroke="black" points="482.5,-134 349.5,-134 349.5,-98 482.5,-98 482.5,-134"/>
<text text-anchor="middle" x="416" y="-109.8" font-family="Times,serif" font-size="24.00">Rotavirus</text>
</g>
<!-- n31&#45;&gt;n21 -->
<g id="edge4" class="edge">
<title>n31&#45;&gt;n21</title>
<path fill="none" stroke="black" d="M413.65,-97.75C411,-84.3 405.44,-65.96 394,-54 385.55,-45.17 374.56,-38.49 363.29,-33.47"/>
<polygon fill="black" stroke="black" points="364.4,-30.14 353.81,-29.62 361.77,-36.63 364.4,-30.14"/>
<text text-anchor="middle" x="503.5" y="-60.8" font-family="Times,serif" font-size="24.00">rdfs:subClassOf</text>
</g>
<!-- n41 -->
<g id="node5" class="node">
<title>n41</title>
<polygon fill="#a50026" stroke="black" points="246.5,-232 157.5,-232 157.5,-196 246.5,-196 246.5,-232"/>
<text text-anchor="middle" x="202" y="-207.8" font-family="Times,serif" font-size="24.00">Homo</text>
</g>
<!-- n41&#45;&gt;n11 -->
<g id="edge5" class="edge">
<title>n41&#45;&gt;n11</title>
<path fill="none" stroke="black" d="M202,-195.84C202,-181.5 202,-160.81 202,-144.22"/>
<polygon fill="black" stroke="black" points="205.5,-144.01 202,-134.01 198.5,-144.01 205.5,-144.01"/>
<text text-anchor="middle" x="297.5" y="-158.8" font-family="Times,serif" font-size="24.00">rdfs:subClassOf</text>
</g>
<!-- n51&#45;&gt;n41 -->
<g id="edge1" class="edge">
<title>n51&#45;&gt;n41</title>
<path fill="none" stroke="black" d="M202,-293.84C202,-279.5 202,-258.81 202,-242.22"/>
<polygon fill="black" stroke="black" points="205.5,-242.01 202,-232.01 198.5,-242.01 205.5,-242.01"/>
<text text-anchor="middle" x="297.5" y="-256.8" font-family="Times,serif" font-size="24.00">rdfs:subClassOf</text>
</g>
</g>
</svg>
